  0
SECTION
  2
HEADER
  9
$ACADVER
  1
AC1015
  9
$ACADMAINTVER
 70
     6
  9
$DWGCODEPAGE
  3
ANSI_1252
  9
$INSBASE
 10
0.0
 20
0.0
 30
0.0
  9
$EXTMIN
 10
-12.7
 20
-64.25
 30
0.0
  9
$EXTMAX
 10
12.7
 20
64.25
 30
0.0
  9
$LIMMIN
 10
0.0
 20
0.0
  9
$LIMMAX
 10
420.0
 20
297.0
  9
$ORTHOMODE
 70
     0
  9
$REGENMODE
 70
     1
  9
$FILLMODE
 70
     1
  9
$QTEXTMODE
 70
     0
  9
$MIRRTEXT
 70
     1
  9
$LTSCALE
 40
1.0
  9
$ATTMODE
 70
     1
  9
$TEXTSIZE
 40
3.5
  9
$TRACEWID
 40
1.0
  9
$TEXTSTYLE
  7
Standard
  9
$CLAYER
  8
0
  9
$CELTYPE
  6
ByLayer
  9
$CECOLOR
 62
   256
  9
$CELTSCALE
 40
1.0
  9
$DISPSILH
 70
     0
  9
$DIMSCALE
 40
1.0
  9
$DIMASZ
 40
5.0
  9
$DIMEXO
 40
0.1
  9
$DIMDLI
 40
3.75
  9
$DIMRND
 40
0.0
  9
$DIMDLE
 40
0.0
  9
$DIMEXE
 40
2.0
  9
$DIMTP
 40
0.0
  9
$DIMTM
 40
0.0
  9
$DIMTXT
 40
3.5
  9
$DIMCEN
 40
2.5
  9
$DIMTSZ
 40
0.0
  9
$DIMTOL
 70
     0
  9
$DIMLIM
 70
     0
  9
$DIMTIH
 70
     1
  9
$DIMTOH
 70
     1
  9
$DIMSE1
 70
     0
  9
$DIMSE2
 70
     0
  9
$DIMTAD
 70
     1
  9
$DIMZIN
 70
     0
  9
$DIMBLK
  1

  9
$DIMASO
 70
     1
  9
$DIMSHO
 70
     1
  9
$DIMPOST
  1

  9
$DIMAPOST
  1

  9
$DIMALT
 70
     0
  9
$DIMALTD
 70
     3
  9
$DIMALTF
 40
0.0393700787
  9
$DIMLFAC
 40
1.0
  9
$DIMTOFL
 70
     1
  9
$DIMTVP
 40
0.0
  9
$DIMTIX
 70
     0
  9
$DIMSOXD
 70
     0
  9
$DIMSAH
 70
     0
  9
$DIMBLK1
  1

  9
$DIMBLK2
  1

  9
$DIMSTYLE
  2
ISO-25
  9
$DIMCLRD
 70
     0
  9
$DIMCLRE
 70
     0
  9
$DIMCLRT
 70
     0
  9
$DIMTFAC
 40
1.0
  9
$DIMGAP
 40
1.524
  9
$DIMJUST
 70
     0
  9
$DIMSD1
 70
     0
  9
$DIMSD2
 70
     0
  9
$DIMTOLJ
 70
     0
  9
$DIMTZIN
 70
     0
  9
$DIMALTZ
 70
     0
  9
$DIMALTTZ
 70
     0
  9
$DIMUPT
 70
     0
  9
$DIMDEC
 70
     2
  9
$DIMTDEC
 70
     2
  9
$DIMALTU
 70
     2
  9
$DIMALTTD
 70
     3
  9
$DIMTXSTY
  7
Standard
  9
$DIMAUNIT
 70
     0
  9
$DIMADEC
 70
     2
  9
$DIMALTRND
 40
0.0
  9
$DIMAZIN
 70
     0
  9
$DIMDSEP
 70
    44
  9
$DIMATFIT
 70
     3
  9
$DIMFRAC
 70
     0
  9
$DIMLDRBLK
  1

  9
$DIMLUNIT
 70
     2
  9
$DIMLWD
 70
    -2
  9
$DIMLWE
 70
    -2
  9
$DIMTMOVE
 70
     0
  9
$LUNITS
 70
     2
  9
$LUPREC
 70
     2
  9
$SKETCHINC
 40
1.0
  9
$FILLETRAD
 40
10.0
  9
$AUNITS
 70
     0
  9
$AUPREC
 70
     2
  9
$MENU
  1
.
  9
$ELEVATION
 40
0.0
  9
$PELEVATION
 40
0.0
  9
$THICKNESS
 40
0.0
  9
$LIMCHECK
 70
     0
  9
$CHAMFERA
 40
0.0
  9
$CHAMFERB
 40
0.0
  9
$CHAMFERC
 40
0.0
  9
$CHAMFERD
 40
0.0
  9
$SKPOLY
 70
     0
  9
$TDCREATE
 40
2457908.687553704
  9
$TDUCREATE
 40
2457908.60422037
  9
$TDUPDATE
 40
2457908.687580741
  9
$TDUUPDATE
 40
2457908.604247408
  9
$TDINDWG
 40
0.0000000116
  9
$TDUSRTIMER
 40
0.0000000116
  9
$USRTIMER
 70
     1
  9
$ANGBASE
 50
0.0
  9
$ANGDIR
 70
     0
  9
$PDMODE
 70
     0
  9
$PDSIZE
 40
-1.0
  9
$PLINEWID
 40
0.0
  9
$SPLFRAME
 70
     0
  9
$SPLINETYPE
 70
     6
  9
$SPLINESEGS
 70
     8
  9
$HANDSEED
  5
C3
  9
$SURFTAB1
 70
     6
  9
$SURFTAB2
 70
     6
  9
$SURFTYPE
 70
     6
  9
$SURFU
 70
     6
  9
$SURFV
 70
     6
  9
$UCSBASE
  2

  9
$UCSNAME
  2

  9
$UCSORG
 10
0.0
 20
0.0
 30
0.0
  9
$UCSXDIR
 10
1.0
 20
0.0
 30
0.0
  9
$UCSYDIR
 10
0.0
 20
1.0
 30
0.0
  9
$UCSORTHOREF
  2

  9
$UCSORTHOVIEW
 70
     0
  9
$UCSORGTOP
 10
0.0
 20
0.0
 30
0.0
  9
$UCSORGBOTTOM
 10
0.0
 20
0.0
 30
0.0
  9
$UCSORGLEFT
 10
0.0
 20
0.0
 30
0.0
  9
$UCSORGRIGHT
 10
0.0
 20
0.0
 30
0.0
  9
$UCSORGFRONT
 10
0.0
 20
0.0
 30
0.0
  9
$UCSORGBACK
 10
0.0
 20
0.0
 30
0.0
  9
$PUCSBASE
  2

  9
$PUCSNAME
  2

  9
$PUCSORG
 10
0.0
 20
0.0
 30
0.0
  9
$PUCSXDIR
 10
1.0
 20
0.0
 30
0.0
  9
$PUCSYDIR
 10
0.0
 20
1.0
 30
0.0
  9
$PUCSORTHOREF
  2

  9
$PUCSORTHOVIEW
 70
     0
  9
$PUCSORGTOP
 10
0.0
 20
0.0
 30
0.0
  9
$PUCSORGBOTTOM
 10
0.0
 20
0.0
 30
0.0
  9
$PUCSORGLEFT
 10
0.0
 20
0.0
 30
0.0
  9
$PUCSORGRIGHT
 10
0.0
 20
0.0
 30
0.0
  9
$PUCSORGFRONT
 10
0.0
 20
0.0
 30
0.0
  9
$PUCSORGBACK
 10
0.0
 20
0.0
 30
0.0
  9
$USERI1
 70
     0
  9
$USERI2
 70
     0
  9
$USERI3
 70
     0
  9
$USERI4
 70
     0
  9
$USERI5
 70
     0
  9
$USERR1
 40
0.0
  9
$USERR2
 40
0.0
  9
$USERR3
 40
0.0
  9
$USERR4
 40
0.0
  9
$USERR5
 40
0.0
  9
$WORLDVIEW
 70
     1
  9
$SHADEDGE
 70
     3
  9
$SHADEDIF
 70
    70
  9
$TILEMODE
 70
     1
  9
$MAXACTVP
 70
    64
  9
$PINSBASE
 10
0.0
 20
0.0
 30
0.0
  9
$PLIMCHECK
 70
     0
  9
$PEXTMIN
 10
1.0000000000E+20
 20
1.0000000000E+20
 30
1.0000000000E+20
  9
$PEXTMAX
 10
-1.0000000000E+20
 20
-1.0000000000E+20
 30
-1.0000000000E+20
  9
$PLIMMIN
 10
0.0
 20
0.0
  9
$PLIMMAX
 10
420.0
 20
297.0
  9
$UNITMODE
 70
     0
  9
$VISRETAIN
 70
     1
  9
$PLINEGEN
 70
     0
  9
$PSLTSCALE
 70
     1
  9
$TREEDEPTH
 70
  3020
  9
$CMLSTYLE
  2
Standard
  9
$CMLJUST
 70
     0
  9
$CMLSCALE
 40
20.0
  9
$PROXYGRAPHICS
 70
     1
  9
$MEASUREMENT
 70
     1
  9
$CELWEIGHT
370
    -1
  9
$ENDCAPS
280
     0
  9
$JOINSTYLE
280
     0
  9
$LWDISPLAY
290
     1
  9
$INSUNITS
 70
     4
  9
$HYPERLINKBASE
  1

  9
$STYLESHEET
  1

  9
$XEDIT
290
     1
  9
$CEPSNTYPE
380
     0
  9
$PSTYLEMODE
290
     1
  9
$FINGERPRINTGUID
  2
{8A5EE91B-24D8-4C0B-9C2E-A69BBAA6DBD1}
  9
$VERSIONGUID
  2
{FAEB1C32-E019-11D5-929B-00C0DF256EC4}
  9
$EXTNAMES
290
     1
  9
$PSVPSCALE
 40
0.0
  9
$OLESTARTUP
290
     0
  0
ENDSEC
  0
SECTION
  2
CLASSES
  0
CLASS
  1
ACDBDICTIONARYWDFLT
  2
AcDbDictionaryWithDefault
  3
ObjectDBX Classes
 90
        0
280
     0
281
     0
  0
CLASS
  1
VISUALSTYLE
  2
AcDbVisualStyle
  3
ObjectDBX Classes
 90
     4095
280
     0
281
     0
  0
CLASS
  1
MATERIAL
  2
AcDbMaterial
  3
ObjectDBX Classes
 90
     1153
280
     0
281
     0
  0
CLASS
  1
SCALE
  2
AcDbScale
  3
ObjectDBX Classes
 90
     1153
280
     0
281
     0
  0
CLASS
  1
TABLESTYLE
  2
AcDbTableStyle
  3
ObjectDBX Classes
 90
     4095
280
     0
281
     0
  0
CLASS
  1
MLEADERSTYLE
  2
AcDbMLeaderStyle
  3
ACDB_MLEADERSTYLE_CLASS
 90
     4095
280
     0
281
     0
  0
CLASS
  1
SUN
  2
AcDbSun
  3
SCENEOE
 90
     1153
280
     0
281
     0
  0
CLASS
  1
ACDBPLACEHOLDER
  2
AcDbPlaceHolder
  3
ObjectDBX Classes
 90
        0
280
     0
281
     0
  0
CLASS
  1
LAYOUT
  2
AcDbLayout
  3
ObjectDBX Classes
 90
        0
280
     0
281
     0
  0
ENDSEC
  0
SECTION
  2
TABLES
  0
TABLE
  2
VPORT
  5
8
330
0
100
AcDbSymbolTable
 70
     1
  0
VPORT
  5
29
330
8
100
AcDbSymbolTableRecord
100
AcDbViewportTableRecord
  2
*Active
 70
     0
 10
0.0
 20
0.0
 11
1.0
 21
1.0
 12
0.0
 22
0.0
 13
0.0
 23
0.0
 14
10.0
 24
10.0
 15
10.0
 25
10.0
 16
0.0
 26
0.0
 36
1.0
 17
0.0
 27
0.0
 37
0.0
 40
131.07
 41
0.1976653696
 42
50.0
 43
0.0
 44
0.0
 50
0.0
 51
0.0
 71
     0
 72
   100
 73
     1
 74
     3
 75
     0
 76
     0
 77
     0
 78
     0
281
     0
 65
     1
110
0.0
120
0.0
130
0.0
111
1.0
121
0.0
131
0.0
112
0.0
122
1.0
132
0.0
 79
     0
146
0.0
  0
ENDTAB
  0
TABLE
  2
LTYPE
  5
5
330
0
100
AcDbSymbolTable
 70
     6
  0
LTYPE
  5
14
330
5
100
AcDbSymbolTableRecord
100
AcDbLinetypeTableRecord
  2
ByBlock
 70
     0
  3

 72
    65
 73
     0
 40
0.0
  0
LTYPE
  5
15
330
5
100
AcDbSymbolTableRecord
100
AcDbLinetypeTableRecord
  2
ByLayer
 70
     0
  3

 72
    65
 73
     0
 40
0.0
  0
LTYPE
  5
16
330
5
100
AcDbSymbolTableRecord
100
AcDbLinetypeTableRecord
  2
Continuous
 70
     0
  3
Solid line
 72
    65
 73
     0
 40
0.0
  0
LTYPE
  5
6E
330
5
100
AcDbSymbolTableRecord
100
AcDbLinetypeTableRecord
  2
HIDDEN
 70
     0
  3
Hidden __ __ __ __ __ __ __ __ __ __ __ __ __ __
 72
    65
 73
     2
 40
1.905
 49
1.27
 74
     0
 49
-0.635
 74
     0
  0
LTYPE
  5
6F
330
5
100
AcDbSymbolTableRecord
100
AcDbLinetypeTableRecord
  2
PHANTOM
 70
     0
  3
Phantom ______  __  __  ______  __  __  ______
 72
    65
 73
     6
 40
12.7
 49
6.35
 74
     0
 49
-1.27
 74
     0
 49
1.27
 74
     0
 49
-1.27
 74
     0
 49
1.27
 74
     0
 49
-1.27
 74
     0
  0
LTYPE
  5
70
330
5
100
AcDbSymbolTableRecord
100
AcDbLinetypeTableRecord
  2
CENTER
 70
     0
  3
Center ____ _ ____ _ ____ _ ____ _ ____ _ ____
 72
    65
 73
     4
 40
10.16
 49
6.35
 74
     0
 49
-1.27
 74
     0
 49
1.27
 74
     0
 49
-1.27
 74
     0
  0
LTYPE
  5
71
330
5
100
AcDbSymbolTableRecord
100
AcDbLinetypeTableRecord
  2
CENTERX2
 70
     0
  3
Center (2x) ________  __  ________  __  _____
 72
    65
 73
     4
 40
20.32
 49
12.7
 74
     0
 49
-2.54
 74
     0
 49
2.54
 74
     0
 49
-2.54
 74
     0
  0
LTYPE
  5
72
330
5
100
AcDbSymbolTableRecord
100
AcDbLinetypeTableRecord
  2
DOT2
 70
     0
  3
Dot (.5x) ........................................
 72
    65
 73
     2
 40
0.635
 49
0.0
 74
     0
 49
-0.635
 74
     0
  0
ENDTAB
  0
TABLE
  2
LAYER
  5
2
330
0
100
AcDbSymbolTable
 70
     1
  0
LAYER
  5
10
330
2
100
AcDbSymbolTableRecord
100
AcDbLayerTableRecord
  2
0
 70
     0
 62
     7
  6
Continuous
370
    -3
390
F
  0
ENDTAB
  0
TABLE
  2
STYLE
  5
3
330
0
100
AcDbSymbolTable
 70
     2
  0
STYLE
  5
11
330
3
100
AcDbSymbolTableRecord
100
AcDbTextStyleTableRecord
  2
Standard
 70
     0
 40
0.0
 41
1.0
 50
0.0
 71
     0
 42
3.5
  3
txt
  4

  0
STYLE
  5
C1
330
3
100
AcDbSymbolTableRecord
100
AcDbTextStyleTableRecord
  2
SLDTEXTSTYLE0
 70
     0
 40
0.0
 41
0.7
 50
0.0
 71
     0
 42
3.5
  3
TXT
  4

  0
ENDTAB
  0
TABLE
  2
VIEW
  5
6
330
0
100
AcDbSymbolTable
 70
     0
  0
ENDTAB
  0
TABLE
  2
UCS
  5
7
330
0
100
AcDbSymbolTable
 70
     0
  0
ENDTAB
  0
TABLE
  2
APPID
  5
9
330
0
100
AcDbSymbolTable
 70
     1
  0
APPID
  5
12
330
9
100
AcDbSymbolTableRecord
100
AcDbRegAppTableRecord
  2
ACAD
 70
     0
  0
ENDTAB
  0
TABLE
  2
DIMSTYLE
  5
A
330
0
100
AcDbSymbolTable
 70
     1
100
AcDbDimStyleTable
  0
DIMSTYLE
105
27
330
A
100
AcDbSymbolTableRecord
100
AcDbDimStyleTableRecord
  2
ISO-25
 70
     0
 41
2.5
 42
0.625
 43
3.75
 44
1.25
 73
     0
 74
     0
 77
     1
 78
     8
140
2.5
141
2.5
143
0.0393700787
147
0.625
171
     3
172
     1
178
     0
271
     2
272
     2
274
     3
278
    44
283
     0
284
     8
340
11
  0
ENDTAB
  0
TABLE
  2
BLOCK_RECORD
  5
1
330
0
100
AcDbSymbolTable
 70
     1
  0
BLOCK_RECORD
  5
1F
330
1
100
AcDbSymbolTableRecord
100
AcDbBlockTableRecord
  2
*Model_Space
340
22
  0
BLOCK_RECORD
  5
1B
330
1
100
AcDbSymbolTableRecord
100
AcDbBlockTableRecord
  2
*Paper_Space
340
1E
  0
BLOCK_RECORD
  5
23
330
1
100
AcDbSymbolTableRecord
100
AcDbBlockTableRecord
  2
*Paper_Space0
340
26
  0
ENDTAB
  0
ENDSEC
  0
SECTION
  2
BLOCKS
  0
BLOCK
  5
20
330
1F
100
AcDbEntity
  8
0
100
AcDbBlockBegin
  2
*Model_Space
 70
     0
 10
0.0
 20
0.0
 30
0.0
  3
*Model_Space
  1

  0
ENDBLK
  5
21
330
1F
100
AcDbEntity
  8
0
100
AcDbBlockEnd
  0
BLOCK
  5
1C
330
1B
100
AcDbEntity
 67
     1
  8
0
100
AcDbBlockBegin
  2
*Paper_Space
 70
     0
 10
0.0
 20
0.0
 30
0.0
  3
*Paper_Space
  1

  0
ENDBLK
  5
1D
330
1B
100
AcDbEntity
 67
     1
  8
0
100
AcDbBlockEnd
  0
BLOCK
  5
24
330
23
100
AcDbEntity
  8
0
100
AcDbBlockBegin
  2
*Paper_Space0
 70
     0
 10
0.0
 20
0.0
 30
0.0
  3
*Paper_Space0
  1

  0
ENDBLK
  5
25
330
23
100
AcDbEntity
  8
0
100
AcDbBlockEnd
  0
ENDSEC
  0
SECTION
  2
ENTITIES
  0
ARC
  5
73
330
1F
100
AcDbEntity
  8
0
  6
Continuous
 62
     7
100
AcDbCircle
 10
-5.4304801338
 20
54.2408417501
 30
0.0
 40
1.250000000000003
100
AcDbArc
 50
315.0
 51
0.0
  0
ARC
  5
74
330
1F
100
AcDbEntity
  8
0
  6
Continuous
 62
     7
100
AcDbCircle
 10
-7.6982470867
 20
51.9730747971
 30
0.0
 40
1.250000000000003
100
AcDbArc
 50
270.0
 51
315.0
  0
ARC
  5
75
330
1F
100
AcDbEntity
  8
0
  6
Continuous
 62
     7
100
AcDbCircle
 10
-7.6982470867
 20
54.9730747971
 30
0.0
 40
1.25
100
AcDbArc
 50
270.0
 51
315.0
  0
ARC
  5
76
330
1F
100
AcDbEntity
  8
0
  6
Continuous
 62
     7
100
AcDbCircle
 10
-8.9304801338
 20
52.4730747971
 30
0.0
 40
1.25
100
AcDbArc
 50
90.0
 51
180.0
  0
ARC
  5
77
330
1F
100
AcDbEntity
  8
0
  6
Continuous
 62
     7
100
AcDbCircle
 10
-8.9304801338
 20
51.9730747971
 30
0.0
 40
1.25
100
AcDbArc
 50
180.0
 51
270.0
  0
LINE
  5
78
330
1F
100
AcDbEntity
  8
0
  6
Continuous
 62
     7
100
AcDbLine
 10
-7.6982470867
 20
50.7230747971
 30
0.0
 11
-8.9304801338
 21
50.7230747971
 31
0.0
  0
LINE
  5
79
330
1F
100
AcDbEntity
  8
0
  6
Continuous
 62
     7
100
AcDbLine
 10
-10.1804801338
 20
51.9730747971
 30
0.0
 11
-10.1804801338
 21
52.4730747971
 31
0.0
  0
LINE
  5
7A
330
1F
100
AcDbEntity
  8
0
  6
Continuous
 62
     7
100
AcDbLine
 10
-8.9304801338
 20
53.7230747971
 30
0.0
 11
-7.6982470867
 21
53.7230747971
 31
0.0
  0
LINE
  5
7B
330
1F
100
AcDbEntity
  8
0
  6
Continuous
 62
     7
100
AcDbLine
 10
-6.8143636103
 20
54.0891913206
 30
0.0
 11
-4.1804801338
 21
56.7230747971
 31
0.0
  0
LINE
  5
7C
330
1F
100
AcDbEntity
  8
0
  6
Continuous
 62
     7
100
AcDbLine
 10
-4.1804801338
 20
56.7230747971
 30
0.0
 11
-4.1804801338
 21
54.2408417501
 31
0.0
  0
LINE
  5
7D
330
1F
100
AcDbEntity
  8
0
  6
Continuous
 62
     7
100
AcDbLine
 10
-4.5465966573
 20
53.3569582736
 30
0.0
 11
-6.8143636103
 21
51.0891913206
 31
0.0
  0
LWPOLYLINE
  5
7E
330
1F
100
AcDbEntity
  8
0
  6
Continuous
 62
     7
100
AcDbPolyline
 90
      150
 70
   128
 43
0.0
 10
-0.3348954488
 20
50.9833318621
 10
-0.6680961959
 20
51.47136459
 10
-0.6680961959
 20
51.47136459
 10
-0.7387751106
 20
51.4301435445
 10
-0.7387751106
 20
51.4301435445
 10
-0.8097236397
 20
51.3848026769
 10
-0.8805708851
 20
51.3424404064
 10
-0.8805708851
 20
51.3424404064
 10
-0.937540835
 20
51.3132250475
 10
-0.9967019369
 20
51.2883919924
 10
-0.9967019369
 20
51.2883919924
 10
-1.0602453426
 20
51.2672108572
 10
-1.130362204
 20
51.2496816418
 10
-1.130362204
 20
51.2496816418
 10
-1.2092436731
 20
51.2379954983
 10
-1.2998112858
 20
51.2343435784
 10
-1.2998112858
 20
51.2343435784
 10
-1.5465341361
 20
51.2343435784
 10
-1.5465341361
 20
51.2343435784
 10
-1.6394398334
 20
51.2409170342
 10
-1.7256251422
 20
51.2599070175
 10
-1.8059673793
 20
51.2920439123
 10
-1.8797361606
 20
51.3373277186
 10
-1.8797361606
 20
51.3373277186
 10
-1.9527745579
 20
51.3928369006
 10
-2.0185091155
 20
51.4571106903
 10
-2.0791309853
 20
51.5294187036
 10
-2.1324490153
 20
51.6097609407
 10
-2.1324490153
 20
51.6097609407
 10
-2.1799239736
 20
51.6981374014
 10
-2.2208254761
 20
51.79162655
 10
-2.2551535229
 20
51.8916891544
 10
-2.2836384978
 20
51.9968644465
 10
-2.2836384978
 20
51.9968644465
 10
-2.3077411689
 20
52.1078828105
 10
-2.3252703843
 20
52.2181707904
 10
-2.3354957599
 20
52.3291891544
 10
-2.3391476798
 20
52.4394771343
 10
-2.3391476798
 20
52.4394771343
 10
-2.3391476798
 20
52.769827523
 10
-2.3391476798
 20
52.769827523
 10
-2.334765376
 20
52.8528744632
 10
-2.3230792324
 20
52.9368686201
 10
-2.3026284811
 20
53.022323545
 10
-2.2741435062
 20
53.1092392378
 10
-2.2741435062
 20
53.1092392378
 10
-2.2383546915
 20
53.1976156986
 10
-2.196722805
 20
53.2823402395
 10
-2.1499782307
 20
53.3626824766
 10
-2.0973905846
 20
53.4393727938
 10
-2.0973905846
 20
53.4393727938
 10
-2.0418814027
 20
53.5080288872
 10
-1.9812595329
 20
53.570841909
 10
-1.9155249753
 20
53.6263510909
 10
-1.8446777299
 20
53.6760172011
 10
-1.8446777299
 20
53.6760172011
 10
-1.7752912524
 20
53.7147275517
 10
-1.704444007
 20
53.7417517587
 10
-1.6314056097
 20
53.7585505901
 10
-1.5569064444
 20
53.7636632779
 10
-1.5569064444
 20
53.7636632779
 10
-1.2941094406
 20
53.7643922353
 10
-1.2941094406
 20
53.7643922353
 10
-1.2369982641
 20
53.7592809741
 10
-1.1756460103
 20
53.7468644465
 10
-1.1106418367
 20
53.7264136953
 10
-1.0419857432
 20
53.6971983363
 10
-1.0419857432
 20
53.6971983363
 10
-0.8944481806
 20
53.6212384031
 10
-0.7542144578
 20
53.5270188706
 10
-0.7542144578
 20
53.5270188706
 10
-0.6882901715
 20
53.4808905577
 10
-0.6882901715
 20
53.4808905577
 10
-0.2995561405
 20
53.9381522944
 10
-0.2995561405
 20
53.9381522944
 10
-0.3702350552
 20
53.9912456458
 10
-0.3702350552
 20
53.9912456458
 10
-0.47520778
 20
54.0580080191
 10
-0.5876869118
 20
54.1186298889
 10
-0.7074698835
 20
54.1734086869
 10
-0.8352870788
 20
54.2223444131
 10
-0.8352870788
 20
54.2223444131
 10
-0.9543396664
 20
54.2647066836
 10
-1.0712011022
 20
54.2946524265
 10
-1.184410618
 20
54.3129120258
 10
-1.294698598
 20
54.3187550976
 10
-1.294698598
 20
54.3187550976
 10
-1.5566311239
 20
54.3194847683
 10
-1.5566311239
 20
54.3194847683
 10
-1.6912970955
 20
54.3099904899
 10
-1.8227662107
 20
54.2829662829
 10
-1.95131379
 20
54.2376824766
 10
-2.0769398334
 20
54.1741390709
 10
-2.0769398334
 20
54.1741390709
 10
-2.195992421
 20
54.1018310575
 10
-2.3113930888
 20
54.0200280525
 10
-2.4224114527
 20
53.9279996719
 10
-2.5290475128
 20
53.8264762996
 10
-2.5290475128
 20
53.8264762996
 10
-2.6283797332
 20
53.7125363998
 10
-2.717486578
 20
53.5905622762
 10
-2.7956376631
 20
53.4620146969
 10
-2.8635633726
 20
53.3261632779
 10
-2.8635633726
 20
53.3261632779
 10
-2.9183421706
 20
53.187390323
 10
-2.9570525212
 20
53.049347752
 10
-2.9804248083
 20
52.9113051811
 10
-2.988459032
 20
52.7747233781
 10
-2.988459032
 20
52.7747233781
 10
-2.9877293613
 20
52.4349065284
 10
-2.9877293613
 20
52.4349065284
 10
-2.9818855763
 20
52.2751407403
 10
-2.963625977
 20
52.1166474181
 10
-2.9322194661
 20
51.9581540959
 10
-2.8883964277
 20
51.8011215417
 10
-2.8883964277
 20
51.8011215417
 10
-2.8343480137
 20
51.6448193714
 10
-2.7686134561
 20
51.4972818088
 10
-2.689731987
 20
51.3563177019
 10
-2.5991643743
 20
51.2241182028
 10
-2.5991643743
 20
51.2241182028
 10
-2.497641002
 20
51.109447919
 10
-2.3866226381
 20
51.0057333948
 10
-2.2668396664
 20
50.9137050141
 10
-2.1375617032
 20
50.8333627771
 10
-2.1375617032
 20
50.8333627771
 10
-2.0718271456
 20
50.7975739624
 10
-2.0039014361
 20
50.7661674515
 10
-1.9337845746
 20
50.7391432445
 10
-1.8607461773
 20
50.7179621093
 10
-1.786247012
 20
50.7011632779
 10
-1.7088263108
 20
50.6887467504
 10
-1.6284840738
 20
50.6814429106
 10
-1.5466810688
 20
50.6792517587
 10
-1.5466810688
 20
50.6792517587
 10
-1.2991579345
 20
50.6792517587
 10
-1.2991579345
 20
50.6792517587
 10
-1.156656027
 20
50.6843644465
 10
-1.0317603676
 20
50.698241742
 10
-1.0317603676
 20
50.698241742
 10
-0.9178204678
 20
50.7208836452
 10
-0.8075324878
 20
50.7515597721
 10
-0.8075324878
 20
50.7515597721
 10
-0.7016268117
 20
50.7888093547
 10
-0.6030249753
 20
50.8333627771
 10
-0.6030249753
 20
50.8333627771
 10
-0.5095358267
 20
50.8837592712
 10
-0.4109339903
 20
50.9392684532
 10
-0.4109339903
 20
50.9392684532
 10
-0.3348955979
 20
50.9833318621
  0
LWPOLYLINE
  5
7F
330
1F
100
AcDbEntity
  8
0
  6
Continuous
 62
     7
100
AcDbPolyline
 90
       16
 70
   128
 43
0.0
 10
1.5406515449
 20
50.7259956197
 10
1.5406519863
 20
53.6709030868
 10
1.5406519863
 20
53.6709030868
 10
2.615981189
 20
53.6709030868
 10
2.615981189
 20
53.6709030868
 10
2.615981189
 20
54.2259956197
 10
2.615981189
 20
54.2259956197
 10
-0.1832588979
 20
54.2259956197
 10
-0.1832588979
 20
54.2259956197
 10
-0.1832588979
 20
53.6709030868
 10
-0.1832588979
 20
53.6709030868
 10
0.8920703048
 20
53.6709030868
 10
0.8920703048
 20
53.6709030868
 10
0.8920703048
 20
50.7259956197
 10
0.8920703048
 20
50.7259956197
 10
1.5406519863
 20
50.7259956197
  0
LWPOLYLINE
  5
80
330
1F
100
AcDbEntity
  8
0
  6
Continuous
 62
     7
100
AcDbPolyline
 90
       23
 70
   128
 43
0.0
 10
4.6582892537
 20
52.0757459156
 10
3.7394643787
 20
52.0757459156
 10
3.7394643787
 20
52.0757459156
 10
3.8004599997
 20
52.2758711243
 10
3.8603514855
 20
52.4679621093
 10
3.9195125873
 20
52.6512884866
 10
3.9779433052
 20
52.8273110241
 10
4.0349132551
 20
52.995299338
 10
4.0904224371
 20
53.1552534282
 10
4.1452012351
 20
53.3071732946
 10
4.1985192651
 20
53.4510589373
 10
4.1985192651
 20
53.4510589373
 10
4.2401511516
 20
53.3334671176
 10
4.284704574
 20
53.2085714582
 10
4.3314491483
 20
53.0741808071
 10
4.3803848745
 20
52.9324863163
 10
4.3803848745
 20
52.9324863163
 10
4.4431978962
 20
52.7403953313
 10
4.5103932217
 20
52.5336966669
 10
4.5819708511
 20
52.311659939
 10
4.6579307843
 20
52.0757459156
 10
4.6579307843
 20
52.0757459156
 10
4.6582902702
 20
52.0757459156
  0
LWPOLYLINE
  5
81
330
1F
100
AcDbEntity
  8
0
  6
Continuous
 62
     7
100
AcDbPolyline
 90
       63
 70
   128
 43
0.0
 10
5.8244913816
 20
50.7259956197
 10
5.779055918
 20
50.8302914554
 10
5.779055918
 20
50.8302914554
 10
5.677546811
 20
51.0977617754
 10
5.5789449746
 20
51.3585088539
 10
5.4832646741
 20
51.6112217086
 10
5.3905059095
 20
51.8566307236
 10
5.2999382968
 20
52.094005515
 10
5.2115618361
 20
52.3240764665
 10
5.1261069112
 20
52.5461131944
 10
5.0428431382
 20
52.7608460826
 10
4.9625009012
 20
52.967544747
 10
4.884349816
 20
53.1654788038
 10
4.8091202668
 20
53.3553786368
 10
4.7360818695
 20
53.5365138622
 10
4.665965008
 20
53.7096148639
 10
4.5987696825
 20
53.8746816418
 10
4.5337655089
 20
54.0309838121
 10
4.4709524872
 20
54.1792517587
 10
4.4709524872
 20
54.1792517587
 10
4.4513020199
 20
54.2259956197
 10
4.4513020199
 20
54.2259956197
 10
3.9716950985
 20
54.2259956197
 10
3.9716950985
 20
54.2259956197
 10
3.9515011229
 20
54.1798437691
 10
3.9515011229
 20
54.1798437691
 10
3.8888364604
 20
54.0309838121
 10
3.8238322868
 20
53.8746816418
 10
3.7559065773
 20
53.7096148639
 10
3.6857897159
 20
53.5365138622
 10
3.6134817025
 20
53.3553786368
 10
3.5382521533
 20
53.1654788038
 10
3.4601010681
 20
52.967544747
 10
3.3797588311
 20
52.7608460826
 10
3.2964950581
 20
52.5461131944
 10
3.2110401332
 20
52.3240764665
 10
3.1226636725
 20
52.094005515
 10
3.0320960598
 20
51.8566307236
 10
2.9386069112
 20
51.6112217086
 10
2.8429266107
 20
51.3585088539
 10
2.7443247743
 20
51.0977617754
 10
2.643531786
 20
50.8297108572
 10
2.643531786
 20
50.8297108572
 10
2.6035532492
 20
50.7259956197
 10
2.6035532492
 20
50.7259956197
 10
3.2951969147
 20
50.7259956197
 10
3.2951969147
 20
50.7259956197
 10
3.5678155858
 20
51.5206533827
 10
3.5678155858
 20
51.5206533827
 10
4.834987557
 20
51.5206533827
 10
4.834987557
 20
51.5206533827
 10
4.8836194321
 20
51.3745773013
 10
4.9281728544
 20
51.244568954
 10
4.967613589
 20
51.1298986702
 10
5.0026720197
 20
51.0298360659
 10
5.0318873786
 20
50.944381141
 10
5.0567204337
 20
50.8749946635
 10
5.076440801
 20
50.8202158655
 10
5.0917788645
 20
50.780044747
 10
5.0917788645
 20
50.780044747
 10
5.112654722
 20
50.7259956197
 10
5.112654722
 20
50.7259956197
 10
5.8244923632
 20
50.7259956197
  0
LWPOLYLINE
  5
82
330
1F
100
AcDbEntity
  8
0
  6
Continuous
 62
     7
100
AcDbPolyline
 90
      156
 70
   128
 43
0.0
 10
8.8328048587
 20
50.8405696127
 10
8.8308719126
 20
52.5406253289
 10
8.8308719126
 20
52.5406253289
 10
7.9524339724
 20
52.5406253289
 10
7.9524339724
 20
52.5406253289
 10
7.9524339724
 20
51.9156591581
 10
7.9524339724
 20
51.9156591581
 10
8.1842231808
 20
51.9156591581
 10
8.1842231808
 20
51.9156591581
 10
8.1842231808
 20
51.2753249667
 10
8.1842231808
 20
51.2753249667
 10
8.0732062434
 20
51.2577158655
 10
7.9563448077
 20
51.244568954
 10
7.9563448077
 20
51.244568954
 10
7.8336403002
 20
51.2372651143
 10
7.7036319529
 20
51.2343435784
 10
7.7036319529
 20
51.2343435784
 10
7.5845793653
 20
51.2394562662
 10
7.4735610013
 20
51.2547943297
 10
7.3705768611
 20
51.2810881527
 10
7.2748965606
 20
51.3176073514
 10
7.1865200998
 20
51.3643519256
 10
7.1069082468
 20
51.4213218756
 10
7.0346002334
 20
51.4885172011
 10
6.9695960598
 20
51.5666682862
 10
6.9695960598
 20
51.5666682862
 10
6.9126261099
 20
51.6535839791
 10
6.8636903836
 20
51.7492642796
 10
6.8220584972
 20
51.8515180358
 10
6.7877304504
 20
51.9625363998
 10
6.7614366274
 20
52.0808586034
 10
6.7424466441
 20
52.2079454148
 10
6.7307605005
 20
52.3416056819
 10
6.7271085806
 20
52.4840305567
 10
6.7271085806
 20
52.4840305567
 10
6.7314908845
 20
52.6081958322
 10
6.743907412
 20
52.7294395717
 10
6.7643581633
 20
52.8477617754
 10
6.7935735222
 20
52.9631624432
 10
6.7935735222
 20
52.9631624432
 10
6.8300927209
 20
53.0734504231
 10
6.8724549913
 20
53.1771649473
 10
6.9206603336
 20
53.2735756318
 10
6.9747087476
 20
53.3626824766
 10
6.9747087476
 20
53.3626824766
 10
7.0346002334
 20
53.4474070175
 10
7.098874023
 20
53.5248277186
 10
7.1675301165
 20
53.5927534282
 10
7.2405685139
 20
53.6533752979
 10
7.2405685139
 20
53.6533752979
 10
7.3172588311
 20
53.7015806402
 10
7.3976010681
 20
53.7359086869
 10
7.4801344571
 20
53.7570898221
 10
7.565589382
 20
53.7636632779
 10
7.565589382
 20
53.7636632779
 10
7.8110461858
 20
53.7643922353
 10
7.8110461858
 20
53.7643922353
 10
7.8701594988
 20
53.760011358
 10
7.9358940564
 20
53.7475948305
 10
7.9358940564
 20
53.7475948305
 10
8.0074716858
 20
53.7256833113
 10
8.084162003
 20
53.6920856485
 10
8.084162003
 20
53.6920856485
 10
8.1068039062
 20
53.679669121
 10
8.1338281132
 20
53.6614095216
 10
8.166695392
 20
53.6380372345
 10
8.2039449746
 20
53.6088218756
 10
8.2470376291
 20
53.5737634448
 10
8.2945125873
 20
53.5335923263
 10
8.3471002334
 20
53.487578136
 10
8.4048005673
 20
53.4364512579
 10
8.4048005673
 20
53.4364512579
 10
8.7984340197
 20
53.9284989578
 10
8.7984340197
 20
53.9284989578
 10
8.7443834659
 20
53.9815923092
 10
8.7443834659
 20
53.9815923092
 10
8.6755918519
 20
54.0322719698
 10
8.6755918519
 20
54.0322719698
 10
8.6377930548
 20
54.0580080191
 10
8.5932396324
 20
54.0864929941
 10
8.5428431382
 20
54.116438737
 10
8.4858731883
 20
54.1478452478
 10
8.4858731883
 20
54.1478452478
 10
8.4223297826
 20
54.1799821427
 10
8.3529433052
 20
54.2099278856
 10
8.2777137559
 20
54.2391432445
 10
8.1959107509
 20
54.2661674515
 10
8.1959107509
 20
54.2661674515
 10
8.1060735222
 20
54.2895397387
 10
8.0118539897
 20
54.3056081861
 10
7.9139825372
 20
54.3158335617
 10
7.810998397
 20
54.3187550976
 10
7.810998397
 20
54.3187550976
 10
7.5657056443
 20
54.3194847683
 10
7.5657056443
 20
54.3194847683
 10
7.4815952251
 20
54.3158335617
 10
7.3983314521
 20
54.307068954
 10
7.3165284471
 20
54.2931916585
 10
7.2354558261
 20
54.2727409073
 10
7.154383205
 20
54.2471774682
 10
7.0747713519
 20
54.2157709574
 10
6.9966202668
 20
54.1785213747
 10
6.9184691816
 20
54.1354287203
 10
6.9184691816
 20
54.1354287203
 10
6.771662003
 20
54.0419395717
 10
6.6394625038
 20
53.9418769674
 10
6.5218706842
 20
53.8367016752
 10
6.4196169279
 20
53.7249529273
 10
6.4196169279
 20
53.7249529273
 10
6.3743331215
 20
53.6628702896
 10
6.333431619
 20
53.6051699557
 10
6.2969124204
 20
53.5518519256
 10
6.2640451416
 20
53.5021858155
 10
6.2362905506
 20
53.4576323931
 10
6.2121878795
 20
53.4167308906
 10
6.1917371282
 20
53.379481308
 10
6.1763990648
 20
53.3473444131
 10
6.1763990648
 20
53.3473444131
 10
6.1501052417
 20
53.2786883196
 10
6.1252721867
 20
53.1939637787
 10
6.1011695155
 20
53.0931707904
 10
6.0792579963
 20
52.9755789707
 10
6.0792579963
 20
52.9755789707
 10
6.0463907175
 20
52.7257876519
 10
6.0354349579
 20
52.4789178689
 10
6.0354349579
 20
52.4789178689
 10
6.0434691816
 20
52.2692976686
 10
6.0668414688
 20
52.0713636118
 10
6.1062822033
 20
51.8836549307
 10
6.1610610013
 20
51.7076323931
 10
6.1610610013
 20
51.7076323931
 10
6.2297170948
 20
51.5432959991
 10
6.3100593319
 20
51.3935672846
 10
6.4013573286
 20
51.2577158655
 10
6.5043414688
 20
51.136472126
 10
6.5043414688
 20
51.136472126
 10
6.6182813686
 20
51.0327576018
 10
6.7417162601
 20
50.9414596051
 10
6.8753765272
 20
50.86330852
 10
7.018531786
 20
50.7975739624
 10
7.018531786
 20
50.7975739624
 10
7.1697212685
 20
50.7457167003
 10
7.3267538227
 20
50.7091975016
 10
7.4888990648
 20
50.6865555984
 10
7.6576177626
 20
50.6792517587
 10
7.6576177626
 20
50.6792517587
 10
7.8153807008
 20
50.6814429106
 10
7.9680309513
 20
50.6880163664
 10
8.1155685139
 20
50.698972126
 10
8.2587237726
 20
50.7150405734
 10
8.3960359596
 20
50.7347609407
 10
8.5289658427
 20
50.7588636118
 10
8.6560526541
 20
50.7880789707
 10
8.7787571616
 20
50.8209462495
 10
8.7787571616
 20
50.8209462495
 10
8.8328048624
 20
50.8405696127
  0
LWPOLYLINE
  5
83
330
1F
100
AcDbEntity
  8
0
  6
Continuous
 62
     7
100
AcDbPolyline
 90
      214
 70
   128
 43
0.0
 10
-7.8012160957
 20
42.6061769616
 10
-7.5235502509
 20
42.6061769616
 10
-7.5235502509
 20
42.6061769616
 10
-7.4266060438
 20
42.6112896494
 10
-7.3265434395
 20
42.623706177
 10
-7.2235592992
 20
42.6412353923
 10
-7.1176536231
 20
42.6660684474
 10
-7.1176536231
 20
42.6660684474
 10
-7.011747947
 20
42.6974749583
 10
-6.9087638067
 20
42.7354549249
 10
-6.8079708184
 20
42.7807387312
 10
-6.71082975
 20
42.8325959933
 10
-6.71082975
 20
42.8325959933
 10
-6.6180709854
 20
42.8917570952
 10
-6.5326160605
 20
42.9596828047
 10
-6.4530042074
 20
43.0341819699
 10
-6.3806961941
 20
43.1174457429
 10
-6.3806961941
 20
43.1174457429
 10
-6.3171527884
 20
43.2131260434
 10
-6.2652955263
 20
43.3190317195
 10
-6.2243940238
 20
43.4337020033
 10
-6.1959090488
 20
43.5585976628
 10
-6.1959090488
 20
43.5585976628
 10
-6.1834925213
 20
43.6498956594
 10
-6.1754582976
 20
43.7390025042
 10
-6.1718063777
 20
43.825918197
 10
-6.1732671456
 20
43.9099123539
 10
-6.1732671456
 20
43.9099123539
 10
-6.1820317533
 20
43.990984975
 10
-6.2010217366
 20
44.0698664441
 10
-6.2302370956
 20
44.1458263773
 10
-6.2696778301
 20
44.2195951586
 10
-6.2696778301
 20
44.2195951586
 10
-6.3200743243
 20
44.290442404
 10
-6.382887346
 20
44.3590984975
 10
-6.4588472792
 20
44.4248330551
 10
-6.54722374
 20
44.4876460768
 10
-6.54722374
 20
44.4876460768
 10
-6.6502078802
 20
44.5489983306
 10
-6.7707212358
 20
44.6081594324
 10
-6.9087638067
 20
44.6651293823
 10
-7.0643355931
 20
44.7199081803
 10
-7.0643355931
 20
44.7199081803
 10
-7.147599366
 20
44.7396285476
 10
-7.2213681473
 20
44.7622704508
 10
-7.285641937
 20
44.7871035058
 10
-7.339690351
 20
44.8155884808
 10
-7.339690351
 20
44.8155884808
 10
-7.3857045413
 20
44.8462646077
 10
-7.4251452759
 20
44.8791318865
 10
-7.4572821707
 20
44.9134599332
 10
-7.4835759937
 20
44.9499791319
 10
-7.4835759937
 20
44.9499791319
 10
-7.503296361
 20
44.9879590985
 10
-7.5179040405
 20
45.0273998331
 10
-7.5273990321
 20
45.0683013356
 10
-7.531781336
 20
45.109933222
 10
-7.531781336
 20
45.109933222
 10
-7.529590184
 20
45.1975792988
 10
-7.5186344244
 20
45.2881469115
 10
-7.5186344244
 20
45.2881469115
 10
-7.4967229052
 20
45.3677587646
 10
-7.4609340906
 20
45.4415275459
 10
-7.4105375964
 20
45.5101836394
 10
-7.3469941907
 20
45.5722662771
 10
-7.3469941907
 20
45.5722662771
 10
-7.3097446081
 20
45.6000208681
 10
-7.2673823376
 20
45.6241235392
 10
-7.2206377633
 20
45.6445742905
 10
-7.1695108852
 20
45.6613731219
 10
-7.1132713193
 20
45.6737896494
 10
-7.0526494495
 20
45.6832846411
 10
-6.9876452759
 20
45.6883973289
 10
-6.9182587984
 20
45.6905884808
 10
-6.9182587984
 20
45.6905884808
 10
-6.8393773293
 20
45.6876669449
 10
-6.7590350922
 20
45.6781719533
 10
-6.6779624712
 20
45.6621035058
 10
-6.5946986982
 20
45.6394616027
 10
-6.5946986982
 20
45.6394616027
 10
-6.5128956932
 20
45.6109766277
 10
-6.4347446081
 20
45.5788397329
 10
-6.3595150588
 20
45.5415901503
 10
-6.2872070455
 20
45.4999582638
 10
-6.2872070455
 20
45.4999582638
 10
-6.2210388224
 20
45.4589504847
 10
-6.2210388224
 20
45.4589504847
 10
-5.8272562975
 20
45.9832206713
 10
-5.8272562975
 20
45.9832206713
 10
-5.8979352122
 20
46.0215030626
 10
-5.8979352122
 20
46.0215030626
 10
-5.9621861774
 20
46.0521285476
 10
-6.0425284144
 20
46.0879173623
 10
-6.0425284144
 20
46.0879173623
 10
-6.1338264111
 20
46.1258973289
 10
-6.2338890154
 20
46.1624165275
 10
-6.2338890154
 20
46.1624165275
 10
-6.3405250755
 20
46.1952838063
 10
-6.4537345914
 20
46.2223080134
 10
-6.4537345914
 20
46.2223080134
 10
-6.5684048752
 20
46.2398372287
 10
-6.6808840071
 20
46.2456803005
 10
-6.6808840071
 20
46.2456803005
 10
-6.8167611037
 20
46.2464099712
 10
-6.8167611037
 20
46.2464099712
 10
-6.9489349253
 20
46.2420283806
 10
-7.0767521206
 20
46.2303422371
 10
-7.2001870121
 20
46.2098914858
 10
-7.3192395997
 20
46.1814065109
 10
-7.3192395997
 20
46.1814065109
 10
-7.4339098835
 20
46.1456176962
 10
-7.5427370956
 20
46.1039858097
 10
-7.6464516198
 20
46.0550500835
 10
-7.7435926882
 20
45.9995409015
 10
-7.7435926882
 20
45.9995409015
 10
-7.8341603009
 20
45.9381886477
 10
-7.9159633059
 20
45.8709933222
 10
-7.9904624712
 20
45.7972245409
 10
-8.0561970288
 20
45.7176126878
 10
-8.0561970288
 20
45.7176126878
 10
-8.1131669787
 20
45.6270450751
 10
-8.159181169
 20
45.5299040067
 10
-8.1949699837
 20
45.4276502504
 10
-8.2205334228
 20
45.3188230384
 10
-8.2205334228
 20
45.3188230384
 10
-8.240436386
 20
45.2111106605
 10
-8.240436386
 20
45.2111106605
 10
-8.2541310855
 20
45.110663606
 10
-8.2577830054
 20
45.0171744574
 10
-8.2526703176
 20
44.9295283806
 10
-8.2380626381
 20
44.8491861436
 10
-8.2380626381
 20
44.8491861436
 10
-8.215420735
 20
44.7739565943
 10
-8.1847446081
 20
44.7031093489
 10
-8.1474950254
 20
44.6373747913
 10
-8.1022112191
 20
44.5752921536
 10
-8.1022112191
 20
44.5752921536
 10
-8.049623573
 20
44.5183222037
 10
-7.9890017032
 20
44.4650041736
 10
-7.9218063777
 20
44.4153380634
 10
-7.8473072124
 20
44.3693238731
 10
-7.8473072124
 20
44.3693238731
 10
-7.7655042074
 20
44.3262312187
 10
-7.6778581306
 20
44.2853297162
 10
-7.5836385981
 20
44.2466193656
 10
-7.4835759937
 20
44.209369783
 10
-7.4835759937
 20
44.209369783
 10
-7.3988514528
 20
44.1786936561
 10
-7.3199699837
 20
44.1494782972
 10
-7.2483923543
 20
44.1209933222
 10
-7.1833881807
 20
44.0932387312
 10
-7.1833881807
 20
44.0932387312
 10
-7.1242270789
 20
44.0647537563
 10
-7.0716394328
 20
44.0348080134
 10
-7.0256252425
 20
44.0026711185
 10
-6.9861845079
 20
43.9690734558
 10
-6.9861845079
 20
43.9690734558
 10
-6.9525868451
 20
43.9325542571
 10
-6.9255626381
 20
43.8931135225
 10
-6.9051118869
 20
43.8514816361
 10
-6.8905042074
 20
43.8061978297
 10
-6.8905042074
 20
43.8061978297
 10
-6.8817395997
 20
43.7572621035
 10
-6.8780876799
 20
43.7032136895
 10
-6.8802788318
 20
43.6433222037
 10
-6.8875826715
 20
43.579048414
 10
-6.8875826715
 20
43.579048414
 10
-6.8999991991
 20
43.5271911519
 10
-6.9160676465
 20
43.4789858097
 10
-6.9365183977
 20
43.4344323873
 10
-6.9613514528
 20
43.3935308848
 10
-6.9613514528
 20
43.3935308848
 10
-7.0190517867
 20
43.3226836394
 10
-7.0869774962
 20
43.2642529215
 10
-7.0869774962
 20
43.2642529215
 10
-7.1629374294
 20
43.2196994992
 10
-7.2440100505
 20
43.1890233723
 10
-7.2440100505
 20
43.1890233723
 10
-7.3265434395
 20
43.1722245409
 10
-7.4076160605
 20
43.1663814691
 10
-7.4076160605
 20
43.1663814691
 10
-7.6194716352
 20
43.1612687813
 10
-7.6194716352
 20
43.1612687813
 10
-7.7026911857
 20
43.1627295492
 10
-7.7844941907
 20
43.1736853088
 10
-7.8655668118
 20
43.1926752922
 10
-7.9451786648
 20
43.2204298831
 10
-7.9451786648
 20
43.2204298831
 10
-8.02332975
 20
43.2562186978
 10
-8.1000200672
 20
43.2985809683
 10
-8.1737888485
 20
43.3475166945
 10
-8.2460968618
 20
43.4037562604
 10
-8.2460968618
 20
43.4037562604
 10
-8.3111153008
 20
43.4607419022
 10
-8.3111153008
 20
43.4607419022
 10
-8.7351887891
 20
42.9199104016
 10
-8.7351887891
 20
42.9199104016
 10
-8.6695583683
 20
42.8812970552
 10
-8.6695583683
 20
42.8812970552
 10
-8.6171319203
 20
42.8486644407
 10
-8.5513973627
 20
42.8084933222
 10
-8.5513973627
 20
42.8084933222
 10
-8.4703247416
 20
42.7654006678
 10
-8.3746444411
 20
42.7215776294
 10
-8.3746444411
 20
42.7215776294
 10
-8.2621653092
 20
42.6806761269
 10
-8.132156962
 20
42.6441569282
 10
-8.132156962
 20
42.6441569282
 10
-8.0591185647
 20
42.6295492487
 10
-7.9802370956
 20
42.6178631052
 10
-7.8940517867
 20
42.6105592654
 10
-7.8012930221
 20
42.6061769616
 10
-7.8012930221
 20
42.6061769616
 10
-7.801217416
 20
42.6061769616
  0
LWPOLYLINE
  5
84
330
1F
100
AcDbEntity
  8
0
  6
Continuous
 62
     7
100
AcDbPolyline
 90
       67
 70
   128
 43
0.0
 10
-5.4043456912
 20
41.7180293368
 10
-5.2276495718
 20
42.7210241353
 10
-5.2276495718
 20
42.7210241353
 10
-5.1193230722
 20
42.6704507513
 10
-5.0002704845
 20
42.6346619366
 10
-4.8717229052
 20
42.6134808013
 10
-4.7329499503
 20
42.6061769616
 10
-4.7329499503
 20
42.6061769616
 10
-4.603671987
 20
42.6120200334
 10
-4.4765851757
 20
42.6288188648
 10
-4.3538806682
 20
42.6573038397
 10
-4.2333673126
 20
42.6967445743
 10
-4.2333673126
 20
42.6967445743
 10
-4.1172362608
 20
42.7471410684
 10
-4.0076786648
 20
42.8070325543
 10
-3.9032337567
 20
42.8764190317
 10
-3.8046319203
 20
42.9553005008
 10
-3.8046319203
 20
42.9553005008
 10
-3.7118731557
 20
43.0436769616
 10
-3.6256878468
 20
43.1437395659
 10
-3.5468063777
 20
43.2554883139
 10
-3.4737679804
 20
43.3781928214
 10
-3.4737679804
 20
43.3781928214
 10
-3.4087638067
 20
43.5111227045
 10
-3.3532546248
 20
43.6513564274
 10
-3.3065100505
 20
43.79889399
 10
-3.2692604678
 20
43.9537353923
 10
-3.2692604678
 20
43.9537353923
 10
-3.2480793326
 20
44.1063856427
 10
-3.2415058769
 20
44.2517320534
 10
-3.2480793326
 20
44.3897746244
 10
-3.2692604678
 20
44.5212437396
 10
-3.2692604678
 20
44.5212437396
 10
-3.3028581306
 20
44.6439482471
 10
-3.348141937
 20
44.755696995
 10
-3.4051118869
 20
44.8579507513
 10
-3.4737679804
 20
44.9492487479
 10
-3.4737679804
 20
44.9492487479
 10
-3.5533798335
 20
45.0310517529
 10
-3.6424866782
 20
45.1033597663
 10
-3.7410885146
 20
45.165442404
 10
-3.8499157266
 20
45.2172996661
 10
-3.8499157266
 20
45.2172996661
 10
-3.9675075463
 20
45.2582011686
 10
-4.0931335897
 20
45.2874165275
 10
-4.2275242408
 20
45.3049457429
 10
-4.3699491156
 20
45.3107888147
 10
-4.3699491156
 20
45.3107888147
 10
-4.4897320872
 20
45.3071368948
 10
-4.6131669787
 20
45.2961811352
 10
-4.7387930221
 20
45.2786519199
 10
-4.8673406014
 20
45.2530884808
 10
-4.8673406014
 20
45.2530884808
 10
-4.933075159
 20
45.2362896494
 10
-5.0010008685
 20
45.2143781302
 10
-5.070387346
 20
45.1873539232
 10
-5.1419649754
 20
45.1552170284
 10
-5.2150033727
 20
45.1186978297
 10
-5.289502538
 20
45.0763355593
 10
-5.3661928552
 20
45.029590985
 10
-5.4450743243
 20
44.9777337229
 10
-5.4450743243
 20
44.9777337229
 10
-5.4750257733
 20
44.9543193531
 10
-5.4750257733
 20
44.9543193531
 10
-6.045505585
 20
41.7180293368
 10
-6.045505585
 20
41.7180293368
 10
-5.4043468586
 20
41.7180293368
  0
LWPOLYLINE
  5
85
330
1F
100
AcDbEntity
  8
0
  6
Continuous
 62
     7
100
AcDbPolyline
 90
       55
 70
   128
 43
0.0
 10
-5.1165819168
 20
43.3044240401
 10
-4.879303492
 20
44.6643989983
 10
-4.879303492
 20
44.6643989983
 10
-4.7906502842
 20
44.701648581
 10
-4.6957003677
 20
44.7308639399
 10
-4.6957003677
 20
44.7308639399
 10
-4.5912554595
 20
44.7498539232
 10
-4.4758547917
 20
44.755696995
 10
-4.4758547917
 20
44.755696995
 10
-4.3991644745
 20
44.7527754591
 10
-4.3275868451
 20
44.7425500835
 10
-4.2611219036
 20
44.7264816361
 10
-4.2005000338
 20
44.7038397329
 10
-4.1449908518
 20
44.674624374
 10
-4.0953247416
 20
44.6395659432
 10
-4.0507713193
 20
44.5972036728
 10
-4.0113305847
 20
44.5489983306
 10
-4.0113305847
 20
44.5489983306
 10
-3.9784633059
 20
44.4942195326
 10
-3.9514390989
 20
44.4343280467
 10
-3.9324491156
 20
44.3685934891
 10
-3.9193022041
 20
44.2970158598
 10
-3.9134591323
 20
44.2195951586
 10
-3.9134591323
 20
44.1363313856
 10
-3.921493356
 20
44.0479549249
 10
-3.9353706515
 20
43.9537353923
 10
-3.9353706515
 20
43.9537353923
 10
-3.9536302508
 20
43.8638981636
 10
-3.974811386
 20
43.7791736227
 10
-4.0003748251
 20
43.6995617696
 10
-4.0288598001
 20
43.6243322204
 10
-4.0609966949
 20
43.5542153589
 10
-4.0960551256
 20
43.4892111853
 10
-4.1354958602
 20
43.4285893155
 10
-4.1778581306
 20
43.3730801336
 10
-4.1778581306
 20
43.3730801336
 10
-4.2246027049
 20
43.3234140234
 10
-4.2749991991
 20
43.2803213689
 10
-4.331238765
 20
43.2438021703
 10
-4.3911302508
 20
43.2145868114
 10
-4.4561344244
 20
43.1912145242
 10
-4.5247905179
 20
43.1744156928
 10
-4.5992896832
 20
43.1649207012
 10
-4.6774407683
 20
43.1612687813
 10
-4.6774407683
 20
43.1612687813
 10
-4.7453664779
 20
43.1634599332
 10
-4.8089098835
 20
43.170033389
 10
-4.8695317533
 20
43.1817195326
 10
-4.9265017032
 20
43.197057596
 10
-4.9798197333
 20
43.2175083472
 10
-5.0287554595
 20
43.2416110184
 10
-5.0747696498
 20
43.2708263773
 10
-5.1171319203
 20
43.3044240401
 10
-5.1171319203
 20
43.3044240401
 10
-5.1165827058
 20
43.3044240401
  0
LWPOLYLINE
  5
86
330
1F
100
AcDbEntity
  8
0
  6
Continuous
 62
     7
100
AcDbPolyline
 90
       44
 70
   128
 43
0.0
 10
-2.0101219416
 20
42.6371048712
 10
-1.8132314579
 20
43.1621482378
 10
-1.8132314579
 20
43.1621482378
 10
-1.8990558544
 20
43.1722452256
 10
-1.8990558544
 20
43.1722452256
 10
-1.9867062108
 20
43.1831803005
 10
-2.0560926882
 20
43.197057596
 10
-2.0560926882
 20
43.197057596
 10
-2.1094107183
 20
43.2175083472
 10
-2.1495818368
 20
43.2474540902
 10
-2.1495818368
 20
43.2474540902
 10
-2.1744148919
 20
43.2890859766
 10
-2.1846402675
 20
43.3409432387
 10
-2.1846402675
 20
43.3409432387
 10
-2.1846402675
 20
43.3723497496
 10
-2.1809883476
 20
43.4088689482
 10
-2.1758756598
 20
43.4497704508
 10
-2.1671110522
 20
43.4950542571
 10
-2.1671110522
 20
43.4950542571
 10
-1.6163401955
 20
46.6203665655
 10
-1.6163401955
 20
46.6203665655
 10
-2.2726444036
 20
46.5092996995
 10
-2.2726444036
 20
46.5092996995
 10
-2.8178817458
 20
43.4246699211
 10
-2.8178817458
 20
43.4246699211
 10
-2.8317604678
 20
43.3277963272
 10
-2.8383339236
 20
43.2379590985
 10
-2.8368731557
 20
43.1539649416
 10
-2.828108548
 20
43.0765442404
 10
-2.8120401006
 20
43.005696995
 10
-2.7879374294
 20
42.9414232053
 10
-2.7565309186
 20
42.8829924875
 10
-2.717090184
 20
42.8311352254
 10
-2.717090184
 20
42.8311352254
 10
-2.6696152258
 20
42.785851419
 10
-2.6126452759
 20
42.7464106845
 10
-2.5469107183
 20
42.7128130217
 10
-2.472411553
 20
42.6857888147
 10
-2.3884173961
 20
42.6638772955
 10
-2.2949282475
 20
42.649269616
 10
-2.1926744912
 20
42.6397746244
 10
-2.0809257433
 20
42.6368530885
 10
-2.0809257433
 20
42.6368530885
 10
-2.0101227204
 20
42.6371048712
  0
LWPOLYLINE
  5
87
330
1F
100
AcDbEntity
  8
0
  6
Continuous
 62
     7
100
AcDbPolyline
 90
        8
 70
   128
 43
0.0
 10
-0.3556038719
 20
45.644572864
 10
-0.2418188986
 20
46.2931545455
 10
-0.2418188986
 20
46.2931545455
 10
-0.8749113044
 20
46.2931545455
 10
-0.8749113044
 20
46.2931545455
 10
-0.9886643286
 20
45.644572864
 10
-0.9886643286
 20
45.644572864
 10
-0.3556040198
 20
45.644572864
  0
LWPOLYLINE
  5
88
330
1F
100
AcDbEntity
  8
0
  6
Continuous
 62
     7
100
AcDbPolyline
 90
        8
 70
   128
 43
0.0
 10
-0.8749109693
 20
42.6529208226
 10
-0.424844991
 20
45.2647746244
 10
-0.424844991
 20
45.2647746244
 10
-1.0480137326
 20
45.2647746244
 10
-1.0480137326
 20
45.2647746244
 10
-1.4980800459
 20
42.6529208226
 10
-1.4980800459
 20
42.6529208226
 10
-0.8749113044
 20
42.6529208226
  0
LWPOLYLINE
  5
89
330
1F
100
AcDbEntity
  8
0
  6
Continuous
 62
     7
100
AcDbPolyline
 90
       66
 70
   128
 43
0.0
 10
1.6426984221
 20
42.7660119364
 10
1.6073592564
 20
43.3162977725
 10
1.6073592564
 20
43.3162977725
 10
1.4804265105
 20
43.2671744574
 10
1.354800467
 20
43.2262729549
 10
1.2284440397
 20
43.1941360601
 10
1.1020876123
 20
43.169303005
 10
1.1020876123
 20
43.169303005
 10
1.0253972951
 20
43.1627295492
 10
0.945785442
 20
43.1722245409
 10
0.945785442
 20
43.1722245409
 10
0.8683647408
 20
43.195596828
 10
0.7989782634
 20
43.2299248748
 10
0.7989782634
 20
43.2299248748
 10
0.7398171615
 20
43.2744782972
 10
0.6908814353
 20
43.3263355593
 10
0.6908814353
 20
43.3263355593
 10
0.6572837726
 20
43.3818447412
 10
0.6426760931
 20
43.4373539232
 10
0.6426760931
 20
43.4373539232
 10
0.6477887809
 20
43.5680926544
 10
0.6631268443
 20
43.689336394
 10
0.6631268443
 20
43.689336394
 10
0.8450366762
 20
44.7096820914
 10
0.8450366762
 20
44.7096820914
 10
1.8648324458
 20
44.7096820914
 10
1.8648324458
 20
44.7096820914
 10
1.9607538301
 20
45.2647739111
 10
1.9607538301
 20
45.2647739111
 10
0.9460065543
 20
45.2647739111
 10
0.9460065543
 20
45.2647739111
 10
1.0924128777
 20
46.0876784183
 10
1.0924128777
 20
46.0876784183
 10
0.4310601756
 20
45.9766115523
 10
0.4310601756
 20
45.9766115523
 10
0.0271806629
 20
43.6898863218
 10
0.0271806629
 20
43.6898863218
 10
0.0065116524
 20
43.5542153589
 10
-0.0044441072
 20
43.4358931553
 10
-0.0066352592
 20
43.334369783
 10
0.0013989645
 20
43.250375626
 10
0.0013989645
 20
43.250375626
 10
0.0262320196
 20
43.142278798
 10
0.070055058
 20
43.0283388982
 10
0.070055058
 20
43.0283388982
 10
0.099270417
 20
42.9713689482
 10
0.1357896156
 20
42.9165901503
 10
0.1774215021
 20
42.8640025042
 10
0.2263572283
 20
42.81360601
 10
0.2263572283
 20
42.81360601
 10
0.2811360263
 20
42.7668614357
 10
0.3424882801
 20
42.7237687813
 10
0.4096836056
 20
42.6857888147
 10
0.4834523869
 20
42.6521911519
 10
0.4834523869
 20
42.6521911519
 10
0.5645250079
 20
42.6244365609
 10
0.6536318527
 20
42.6047161937
 10
0.7500425372
 20
42.5922996661
 10
0.8544874453
 20
42.5886477462
 10
0.8544874453
 20
42.5886477462
 10
1.0436568944
 20
42.5981427379
 10
1.2269832717
 20
42.6266277129
 10
1.4051969612
 20
42.6741026711
 10
1.5768371949
 20
42.7405676127
 10
1.5768371949
 20
42.7405676127
 10
1.6426987138
 20
42.7660119364
  0
LWPOLYLINE
  5
8A
330
1F
100
AcDbEntity
  8
0
  6
Continuous
 62
     7
100
AcDbPolyline
 90
       66
 70
   128
 43
0.0
 10
3.7929490209
 20
42.7660119364
 10
3.7576096738
 20
43.3162977725
 10
3.7576096738
 20
43.3162977725
 10
3.6306769278
 20
43.2671744574
 10
3.5050508844
 20
43.2262729549
 10
3.378694457
 20
43.1941360601
 10
3.2523380296
 20
43.169303005
 10
3.2523380296
 20
43.169303005
 10
3.1756477125
 20
43.1627295492
 10
3.0960358594
 20
43.1722245409
 10
3.0960358594
 20
43.1722245409
 10
3.0186151582
 20
43.195596828
 10
2.9492286807
 20
43.2299248748
 10
2.9492286807
 20
43.2299248748
 10
2.8900675789
 20
43.2744782972
 10
2.8411318527
 20
43.3263355593
 10
2.8411318527
 20
43.3263355593
 10
2.8075341899
 20
43.3818447412
 10
2.7929265105
 20
43.4373539232
 10
2.7929265105
 20
43.4373539232
 10
2.7980391983
 20
43.5680926544
 10
2.8133772617
 20
43.689336394
 10
2.8133772617
 20
43.689336394
 10
2.9952870935
 20
44.7096820914
 10
2.9952870935
 20
44.7096820914
 10
4.0150828632
 20
44.7096820914
 10
4.0150828632
 20
44.7096820914
 10
4.1110042474
 20
45.2647739111
 10
4.1110042474
 20
45.2647739111
 10
3.0962569717
 20
45.2647739111
 10
3.0962569717
 20
45.2647739111
 10
3.2426632951
 20
46.0876784183
 10
3.2426632951
 20
46.0876784183
 10
2.581310593
 20
45.9766115523
 10
2.581310593
 20
45.9766115523
 10
2.1774310802
 20
43.6898863218
 10
2.1774310802
 20
43.6898863218
 10
2.1567620697
 20
43.5542153589
 10
2.1458063101
 20
43.4358931553
 10
2.1436151582
 20
43.334369783
 10
2.1516493819
 20
43.250375626
 10
2.1516493819
 20
43.250375626
 10
2.176482437
 20
43.142278798
 10
2.2203054754
 20
43.0283388982
 10
2.2203054754
 20
43.0283388982
 10
2.2495208343
 20
42.9713689482
 10
2.286040033
 20
42.9165901503
 10
2.3276719195
 20
42.8640025042
 10
2.3766076457
 20
42.81360601
 10
2.3766076457
 20
42.81360601
 10
2.4313864437
 20
42.7668614357
 10
2.4927386974
 20
42.7237687813
 10
2.559934023
 20
42.6857888147
 10
2.6337028043
 20
42.6521911519
 10
2.6337028043
 20
42.6521911519
 10
2.7147754253
 20
42.6244365609
 10
2.80388227
 20
42.6047161937
 10
2.9002929545
 20
42.5922996661
 10
3.0047378627
 20
42.5886477462
 10
3.0047378627
 20
42.5886477462
 10
3.1939073118
 20
42.5981427379
 10
3.3772336891
 20
42.6266277129
 10
3.5554473786
 20
42.6741026711
 10
3.7270876123
 20
42.7405676127
 10
3.7270876123
 20
42.7405676127
 10
3.7929491312
 20
42.7660119364
  0
LWPOLYLINE
  5
8B
330
1F
100
AcDbEntity
  8
0
  6
Continuous
 62
     7
100
AcDbPolyline
 90
       32
 70
   128
 43
0.0
 10
6.0277953744
 20
44.1809810989
 10
4.9994464509
 20
44.1860295928
 10
4.9994464509
 20
44.1860295928
 10
5.0490826039
 20
44.3035893155
 10
5.1075133218
 20
44.4109557596
 10
5.1739782634
 20
44.508096828
 10
5.2484774286
 20
44.5942821369
 10
5.2484774286
 20
44.5942821369
 10
5.2893789312
 20
44.6322621035
 10
5.3324715856
 20
44.6651293823
 10
5.3777553919
 20
44.6928839733
 10
5.4252303502
 20
44.7155258765
 10
5.4756268443
 20
44.7330550918
 10
5.5282144904
 20
44.7454716194
 10
5.5829932884
 20
44.7535058431
 10
5.6406936223
 20
44.755696995
 10
5.6406936223
 20
44.755696995
 10
5.6925508844
 20
44.7535058431
 10
5.7400258427
 20
44.7454716194
 10
5.784579265
 20
44.7330550918
 10
5.8254807675
 20
44.7155258765
 10
5.8627303502
 20
44.6928839733
 10
5.896328013
 20
44.6651293823
 10
5.9270041398
 20
44.6322621035
 10
5.9532979629
 20
44.5942821369
 10
5.9532979629
 20
44.5942821369
 10
5.9949298493
 20
44.5073664441
 10
6.0212236724
 20
44.4102253756
 10
6.032179432
 20
44.3006677796
 10
6.0270667442
 20
44.180884808
 10
6.0270667442
 20
44.180884808
 10
6.0277957016
 20
44.1809810989
  0
LWPOLYLINE
  5
8C
330
1F
100
AcDbEntity
  8
0
  6
Continuous
 62
     7
100
AcDbPolyline
 90
      104
 70
   128
 43
0.0
 10
6.3250102103
 20
42.9844209954
 10
5.9361125415
 20
43.4022141802
 10
5.9361125415
 20
43.4022141802
 10
5.869935046
 20
43.3284553846
 10
5.869935046
 20
43.3284553846
 10
5.8240199996
 20
43.2810517529
 10
5.7736235054
 20
43.2423414023
 10
5.7181143235
 20
43.2131260434
 10
5.6582228377
 20
43.1926752922
 10
5.6582228377
 20
43.1926752922
 10
5.5274841064
 20
43.169303005
 10
5.3857896156
 20
43.1612687813
 10
5.3857896156
 20
43.1612687813
 10
5.2711193318
 20
43.168572621
 10
5.1710567275
 20
43.1897537563
 10
5.0848714186
 20
43.2262729549
 10
5.0140241732
 20
43.2766694491
 10
5.0140241732
 20
43.2766694491
 10
4.9840784303
 20
43.3088063439
 10
4.9592453752
 20
43.3482470785
 10
4.93806424
 20
43.3949916528
 10
4.9212654086
 20
43.4483096828
 10
4.9088488811
 20
43.5082011686
 10
4.9008146574
 20
43.5753964942
 10
4.8964323535
 20
43.6498956594
 10
4.8971627375
 20
43.7309682805
 10
4.8971627375
 20
43.7309682805
 10
6.5627876967
 20
43.731665141
 10
6.5627876967
 20
43.731665141
 10
6.5923839395
 20
43.8682804674
 10
6.6135650747
 20
44.0063230384
 10
6.6259816023
 20
44.1465567613
 10
6.6289031382
 20
44.2882512521
 10
6.6289031382
 20
44.2882512521
 10
6.6223296824
 20
44.428484975
 10
6.604800467
 20
44.5621452421
 10
6.5755851081
 20
44.6870409015
 10
6.5354139896
 20
44.8053631052
 10
6.5354139896
 20
44.8053631052
 10
6.4835567275
 20
44.9105383973
 10
6.4185525539
 20
45.0062186978
 10
6.3418622367
 20
45.0924040067
 10
6.2527553919
 20
45.1683639399
 10
6.2527553919
 20
45.1683639399
 10
6.2030892817
 20
45.2019616027
 10
6.1497712517
 20
45.2304465776
 10
6.0920709178
 20
45.2552796327
 10
6.0299882801
 20
45.275
 10
5.9642537225
 20
45.2910684474
 10
5.894136861
 20
45.302024207
 10
5.8203680797
 20
45.3085976628
 10
5.7422169946
 20
45.3107888147
 10
5.7422169946
 20
45.3107888147
 10
5.6202428711
 20
45.3049457429
 10
5.4989991315
 20
45.2866861436
 10
5.3777553919
 20
45.2567404007
 10
5.2565116524
 20
45.2151085142
 10
5.2565116524
 20
45.2151085142
 10
5.1381894487
 20
45.1617904841
 10
5.0257103168
 20
45.0989774624
 10
4.9183438727
 20
45.0244782972
 10
4.8168205004
 20
44.9404841402
 10
4.8168205004
 20
44.9404841402
 10
4.7211401999
 20
44.8455342237
 10
4.6327637392
 20
44.7388981636
 10
4.5494999662
 20
44.6220367279
 10
4.473540033
 20
44.4942195326
 10
4.473540033
 20
44.4942195326
 10
4.4056143235
 20
44.3561769616
 10
4.3493747575
 20
44.2101001669
 10
4.3048213352
 20
44.0552587646
 10
4.2712236724
 20
43.8931135225
 10
4.2712236724
 20
43.8931135225
 10
4.2529640731
 20
43.771139399
 10
4.2441994654
 20
43.6513564274
 10
4.2441994654
 20
43.5330342237
 10
4.253694457
 20
43.416903172
 10
4.253694457
 20
43.416903172
 10
4.2734148243
 20
43.3044240401
 10
4.3033605672
 20
43.1985183639
 10
4.3449924537
 20
43.0991861436
 10
4.3975800998
 20
43.006427379
 10
4.3975800998
 20
43.006427379
 10
4.4611235054
 20
42.9209724541
 10
4.5363530547
 20
42.8442821369
 10
4.6225383635
 20
42.7756260434
 10
4.720409816
 20
42.7164649416
 10
4.720409816
 20
42.7164649416
 10
4.8306977959
 20
42.6682595993
 10
4.9548630714
 20
42.6339315526
 10
5.0921752584
 20
42.6127504174
 10
5.2433647408
 20
42.6061769616
 10
5.2433647408
 20
42.6061769616
 10
5.4120834387
 20
42.6112896494
 10
5.5683856089
 20
42.6273580968
 10
5.7100800998
 20
42.6543823038
 10
5.839358063
 20
42.6916318865
 10
5.839358063
 20
42.6916318865
 10
5.9562194988
 20
42.7383764608
 10
6.0650467108
 20
42.7931552588
 10
6.1643789312
 20
42.8552378965
 10
6.2549465438
 20
42.9253547579
 10
6.2549465438
 20
42.9253547579
 10
6.3250134767
 20
42.9844209954
  0
LWPOLYLINE
  5
8D
330
1F
100
AcDbEntity
  8
0
  6
Continuous
 62
     7
100
AcDbPolyline
 90
       38
 70
   128
 43
0.0
 10
7.5803622603
 20
42.6529208226
 10
7.9388068514
 20
44.7109602634
 10
7.9388068514
 20
44.7109602634
 10
8.0421961265
 20
44.7301335559
 10
8.1400675789
 20
44.7447412354
 10
8.2335567275
 20
44.7527754591
 10
8.3219331882
 20
44.755696995
 10
8.3219331882
 20
44.755696995
 10
8.4585149913
 20
44.7513146912
 10
8.5856018026
 20
44.7381677796
 10
8.7039240063
 20
44.7162562604
 10
8.8120208343
 20
44.6855801336
 10
8.8120208343
 20
44.6855801336
 10
8.8929722002
 20
44.6554739059
 10
8.8929722002
 20
44.6554739059
 10
9.1100574383
 20
45.2141555914
 10
9.1100574383
 20
45.2141555914
 10
9.0393785236
 20
45.2336334483
 10
9.0393785236
 20
45.2336334483
 10
8.9150049746
 20
45.2676961603
 10
8.7842662433
 20
45.2917988314
 10
8.6469540564
 20
45.3064065109
 10
8.5037987976
 20
45.3107888147
 10
8.5037987976
 20
45.3107888147
 10
8.3613739228
 20
45.3085976628
 10
8.2211401999
 20
45.301293823
 10
8.083097629
 20
45.2896076795
 10
7.9472462099
 20
45.2720784641
 10
7.8143163268
 20
45.2501669449
 10
7.6835775956
 20
45.2238731219
 10
7.5550300163
 20
45.191736227
 10
7.4286735889
 20
45.1552170284
 10
7.4286735889
 20
45.1552170284
 10
7.3733755336
 20
45.1362441634
 10
7.3733755336
 20
45.1362441634
 10
6.9341565635
 20
42.6529208226
 10
6.9341565635
 20
42.6529208226
 10
7.5803637838
 20
42.6529208226
  0
LWPOLYLINE
  5
8E
330
1F
100
AcDbEntity
  8
0
  6
Continuous
 62
     7
100
AcDbPolyline
 90
       40
 70
   128
 43
0.0
 10
-4.2749978602
 20
-32.7
 10
-5.675
 20
-32.7
 10
-5.675
 20
-32.7
 10
-5.715625
 20
-32.696875
 10
-5.7515625
 20
-32.6890625
 10
-5.78125
 20
-32.675
 10
-5.80625
 20
-32.65625
 10
-5.825
 20
-32.63125
 10
-5.8390625
 20
-32.6015625
 10
-5.846875
 20
-32.565625
 10
-5.85
 20
-32.525
 10
-5.85
 20
-32.525
 10
-5.846875
 20
-32.48359375
 10
-5.8390625
 20
-32.4484375
 10
-5.825
 20
-32.41796875
 10
-5.80625
 20
-32.39375
 10
-5.78125
 20
-32.37421875
 10
-5.7515625
 20
-32.3609375
 10
-5.715625
 20
-32.35234375
 10
-5.675
 20
-32.35
 10
-5.675
 20
-32.35
 10
-4.275
 20
-32.35
 10
-4.275
 20
-32.35
 10
-4.23359375
 20
-32.35234375
 10
-4.1984375
 20
-32.3609375
 10
-4.16796875
 20
-32.37421875
 10
-4.14375
 20
-32.39375
 10
-4.12421875
 20
-32.41796875
 10
-4.1109375
 20
-32.4484375
 10
-4.10234375
 20
-32.48359375
 10
-4.1
 20
-32.525
 10
-4.1
 20
-32.525
 10
-4.10234375
 20
-32.565625
 10
-4.1109375
 20
-32.6015625
 10
-4.12421875
 20
-32.63125
 10
-4.14375
 20
-32.65625
 10
-4.16796875
 20
-32.675
 10
-4.1984375
 20
-32.6890625
 10
-4.23359375
 20
-32.696875
 10
-4.275
 20
-32.7
  0
LWPOLYLINE
  5
8F
330
1F
100
AcDbEntity
  8
0
  6
Continuous
 62
     7
100
AcDbPolyline
 90
       40
 70
   128
 43
0.0
 10
-4.2749978602
 20
-33.75
 10
-5.675
 20
-33.75
 10
-5.675
 20
-33.75
 10
-5.715625
 20
-33.746875
 10
-5.7515625
 20
-33.7390625
 10
-5.78125
 20
-33.725
 10
-5.80625
 20
-33.70625
 10
-5.825
 20
-33.68125
 10
-5.8390625
 20
-33.6515625
 10
-5.846875
 20
-33.615625
 10
-5.85
 20
-33.575
 10
-5.85
 20
-33.575
 10
-5.846875
 20
-33.53359375
 10
-5.8390625
 20
-33.4984375
 10
-5.825
 20
-33.46796875
 10
-5.80625
 20
-33.44375
 10
-5.78125
 20
-33.42421875
 10
-5.7515625
 20
-33.4109375
 10
-5.715625
 20
-33.40234375
 10
-5.675
 20
-33.4
 10
-5.675
 20
-33.4
 10
-4.275
 20
-33.4
 10
-4.275
 20
-33.4
 10
-4.23359375
 20
-33.40234375
 10
-4.1984375
 20
-33.4109375
 10
-4.16796875
 20
-33.42421875
 10
-4.14375
 20
-33.44375
 10
-4.12421875
 20
-33.46796875
 10
-4.1109375
 20
-33.4984375
 10
-4.10234375
 20
-33.53359375
 10
-4.1
 20
-33.575
 10
-4.1
 20
-33.575
 10
-4.10234375
 20
-33.615625
 10
-4.1109375
 20
-33.6515625
 10
-4.12421875
 20
-33.68125
 10
-4.14375
 20
-33.70625
 10
-4.16796875
 20
-33.725
 10
-4.1984375
 20
-33.7390625
 10
-4.23359375
 20
-33.746875
 10
-4.275
 20
-33.75
  0
LWPOLYLINE
  5
90
330
1F
100
AcDbEntity
  8
0
  6
Continuous
 62
     7
100
AcDbPolyline
 90
       40
 70
   128
 43
0.0
 10
-4.2749978602
 20
7.3
 10
-5.675
 20
7.3
 10
-5.675
 20
7.3
 10
-5.715625
 20
7.303125
 10
-5.7515625
 20
7.3109375
 10
-5.78125
 20
7.325
 10
-5.80625
 20
7.34375
 10
-5.825
 20
7.36875
 10
-5.8390625
 20
7.3984375
 10
-5.846875
 20
7.434375
 10
-5.85
 20
7.475
 10
-5.85
 20
7.475
 10
-5.846875
 20
7.51640625
 10
-5.8390625
 20
7.5515625
 10
-5.825
 20
7.58203125
 10
-5.80625
 20
7.60625
 10
-5.78125
 20
7.62578125
 10
-5.7515625
 20
7.6390625
 10
-5.715625
 20
7.64765625
 10
-5.675
 20
7.65
 10
-5.675
 20
7.65
 10
-4.275
 20
7.65
 10
-4.275
 20
7.65
 10
-4.23359375
 20
7.64765625
 10
-4.1984375
 20
7.6390625
 10
-4.16796875
 20
7.62578125
 10
-4.14375
 20
7.60625
 10
-4.12421875
 20
7.58203125
 10
-4.1109375
 20
7.5515625
 10
-4.10234375
 20
7.51640625
 10
-4.1
 20
7.475
 10
-4.1
 20
7.475
 10
-4.10234375
 20
7.434375
 10
-4.1109375
 20
7.3984375
 10
-4.12421875
 20
7.36875
 10
-4.14375
 20
7.34375
 10
-4.16796875
 20
7.325
 10
-4.1984375
 20
7.3109375
 10
-4.23359375
 20
7.303125
 10
-4.275
 20
7.3
  0
LWPOLYLINE
  5
91
330
1F
100
AcDbEntity
  8
0
  6
Continuous
 62
     7
100
AcDbPolyline
 90
       40
 70
   128
 43
0.0
 10
-4.2749978602
 20
6.25
 10
-5.675
 20
6.25
 10
-5.675
 20
6.25
 10
-5.715625
 20
6.253125
 10
-5.7515625
 20
6.2609375
 10
-5.78125
 20
6.275
 10
-5.80625
 20
6.29375
 10
-5.825
 20
6.31875
 10
-5.8390625
 20
6.3484375
 10
-5.846875
 20
6.384375
 10
-5.85
 20
6.425
 10
-5.85
 20
6.425
 10
-5.846875
 20
6.46640625
 10
-5.8390625
 20
6.5015625
 10
-5.825
 20
6.53203125
 10
-5.80625
 20
6.55625
 10
-5.78125
 20
6.57578125
 10
-5.7515625
 20
6.5890625
 10
-5.715625
 20
6.59765625
 10
-5.675
 20
6.6
 10
-5.675
 20
6.6
 10
-4.275
 20
6.6
 10
-4.275
 20
6.6
 10
-4.23359375
 20
6.59765625
 10
-4.1984375
 20
6.5890625
 10
-4.16796875
 20
6.57578125
 10
-4.14375
 20
6.55625
 10
-4.12421875
 20
6.53203125
 10
-4.1109375
 20
6.5015625
 10
-4.10234375
 20
6.46640625
 10
-4.1
 20
6.425
 10
-4.1
 20
6.425
 10
-4.10234375
 20
6.384375
 10
-4.1109375
 20
6.3484375
 10
-4.12421875
 20
6.31875
 10
-4.14375
 20
6.29375
 10
-4.16796875
 20
6.275
 10
-4.1984375
 20
6.2609375
 10
-4.23359375
 20
6.253125
 10
-4.275
 20
6.25
  0
LWPOLYLINE
  5
92
330
1F
100
AcDbEntity
  8
0
  6
Continuous
 62
     7
100
AcDbPolyline
 90
       88
 70
   128
 43
0.0
 10
-5.1499977708
 20
-13.2
 10
-5.675
 20
-13.2
 10
-5.675
 20
-13.2
 10
-5.715625
 20
-13.196875
 10
-5.7515625
 20
-13.1890625
 10
-5.78125
 20
-13.175
 10
-5.80625
 20
-13.15625
 10
-5.825
 20
-13.13125
 10
-5.8390625
 20
-13.1015625
 10
-5.846875
 20
-13.065625
 10
-5.85
 20
-13.025
 10
-5.85
 20
-13.025
 10
-5.846875
 20
-12.98359375
 10
-5.8390625
 20
-12.9484375
 10
-5.825
 20
-12.91796875
 10
-5.80625
 20
-12.89375
 10
-5.78125
 20
-12.87421875
 10
-5.7515625
 20
-12.8609375
 10
-5.715625
 20
-12.85234375
 10
-5.675
 20
-12.85
 10
-5.675
 20
-12.85
 10
-5.15
 20
-12.85
 10
-5.15
 20
-12.85
 10
-5.15
 20
-12.325
 10
-5.15
 20
-12.325
 10
-5.146875
 20
-12.28359375
 10
-5.1390625
 20
-12.2484375
 10
-5.125
 20
-12.21796875
 10
-5.10625
 20
-12.19375
 10
-5.08125
 20
-12.17421875
 10
-5.0515625
 20
-12.1609375
 10
-5.015625
 20
-12.15234375
 10
-4.975
 20
-12.15
 10
-4.975
 20
-12.15
 10
-4.93359375
 20
-12.15234375
 10
-4.8984375
 20
-12.1609375
 10
-4.86796875
 20
-12.17421875
 10
-4.84375
 20
-12.19375
 10
-4.82421875
 20
-12.21796875
 10
-4.8109375
 20
-12.2484375
 10
-4.80234375
 20
-12.28359375
 10
-4.8
 20
-12.325
 10
-4.8
 20
-12.325
 10
-4.8
 20
-12.85
 10
-4.8
 20
-12.85
 10
-4.275
 20
-12.85
 10
-4.275
 20
-12.85
 10
-4.23359375
 20
-12.85234375
 10
-4.1984375
 20
-12.8609375
 10
-4.16796875
 20
-12.87421875
 10
-4.14375
 20
-12.89375
 10
-4.12421875
 20
-12.91796875
 10
-4.1109375
 20
-12.9484375
 10
-4.10234375
 20
-12.98359375
 10
-4.1
 20
-13.025
 10
-4.1
 20
-13.025
 10
-4.10234375
 20
-13.065625
 10
-4.1109375
 20
-13.1015625
 10
-4.12421875
 20
-13.13125
 10
-4.14375
 20
-13.15625
 10
-4.16796875
 20
-13.175
 10
-4.1984375
 20
-13.1890625
 10
-4.23359375
 20
-13.196875
 10
-4.275
 20
-13.2
 10
-4.275
 20
-13.2
 10
-4.8
 20
-13.2
 10
-4.8
 20
-13.2
 10
-4.8
 20
-13.725
 10
-4.8
 20
-13.725
 10
-4.80234375
 20
-13.765625
 10
-4.8109375
 20
-13.8015625
 10
-4.82421875
 20
-13.83125
 10
-4.84375
 20
-13.85625
 10
-4.86796875
 20
-13.875
 10
-4.8984375
 20
-13.8890625
 10
-4.93359375
 20
-13.896875
 10
-4.975
 20
-13.9
 10
-4.975
 20
-13.9
 10
-5.015625
 20
-13.896875
 10
-5.0515625
 20
-13.8890625
 10
-5.08125
 20
-13.875
 10
-5.10625
 20
-13.85625
 10
-5.125
 20
-13.83125
 10
-5.1390625
 20
-13.8015625
 10
-5.146875
 20
-13.765625
 10
-5.15
 20
-13.725
 10
-5.15
 20
-13.725
 10
-5.15
 20
-13.2
  0
LWPOLYLINE
  5
93
330
1F
100
AcDbEntity
  8
0
  6
Continuous
 62
     7
100
AcDbPolyline
 90
       40
 70
   128
 43
0.0
 10
-4.2749978602
 20
-2.7
 10
-5.675
 20
-2.7
 10
-5.675
 20
-2.7
 10
-5.715625
 20
-2.696875
 10
-5.7515625
 20
-2.6890625
 10
-5.78125
 20
-2.675
 10
-5.80625
 20
-2.65625
 10
-5.825
 20
-2.63125
 10
-5.8390625
 20
-2.6015625
 10
-5.846875
 20
-2.565625
 10
-5.85
 20
-2.525
 10
-5.85
 20
-2.525
 10
-5.846875
 20
-2.48359375
 10
-5.8390625
 20
-2.4484375
 10
-5.825
 20
-2.41796875
 10
-5.80625
 20
-2.39375
 10
-5.78125
 20
-2.37421875
 10
-5.7515625
 20
-2.3609375
 10
-5.715625
 20
-2.35234375
 10
-5.675
 20
-2.35
 10
-5.675
 20
-2.35
 10
-4.275
 20
-2.35
 10
-4.275
 20
-2.35
 10
-4.23359375
 20
-2.35234375
 10
-4.1984375
 20
-2.3609375
 10
-4.16796875
 20
-2.37421875
 10
-4.14375
 20
-2.39375
 10
-4.12421875
 20
-2.41796875
 10
-4.1109375
 20
-2.4484375
 10
-4.10234375
 20
-2.48359375
 10
-4.1
 20
-2.525
 10
-4.1
 20
-2.525
 10
-4.10234375
 20
-2.565625
 10
-4.1109375
 20
-2.6015625
 10
-4.12421875
 20
-2.63125
 10
-4.14375
 20
-2.65625
 10
-4.16796875
 20
-2.675
 10
-4.1984375
 20
-2.6890625
 10
-4.23359375
 20
-2.696875
 10
-4.275
 20
-2.7
  0
LWPOLYLINE
  5
94
330
1F
100
AcDbEntity
  8
0
  6
Continuous
 62
     7
100
AcDbPolyline
 90
       40
 70
   128
 43
0.0
 10
-4.2749978602
 20
-3.75
 10
-5.675
 20
-3.75
 10
-5.675
 20
-3.75
 10
-5.715625
 20
-3.746875
 10
-5.7515625
 20
-3.7390625
 10
-5.78125
 20
-3.725
 10
-5.80625
 20
-3.70625
 10
-5.825
 20
-3.68125
 10
-5.8390625
 20
-3.6515625
 10
-5.846875
 20
-3.615625
 10
-5.85
 20
-3.575
 10
-5.85
 20
-3.575
 10
-5.846875
 20
-3.53359375
 10
-5.8390625
 20
-3.4984375
 10
-5.825
 20
-3.46796875
 10
-5.80625
 20
-3.44375
 10
-5.78125
 20
-3.42421875
 10
-5.7515625
 20
-3.4109375
 10
-5.715625
 20
-3.40234375
 10
-5.675
 20
-3.4
 10
-5.675
 20
-3.4
 10
-4.275
 20
-3.4
 10
-4.275
 20
-3.4
 10
-4.23359375
 20
-3.40234375
 10
-4.1984375
 20
-3.4109375
 10
-4.16796875
 20
-3.42421875
 10
-4.14375
 20
-3.44375
 10
-4.12421875
 20
-3.46796875
 10
-4.1109375
 20
-3.4984375
 10
-4.10234375
 20
-3.53359375
 10
-4.1
 20
-3.575
 10
-4.1
 20
-3.575
 10
-4.10234375
 20
-3.615625
 10
-4.1109375
 20
-3.6515625
 10
-4.12421875
 20
-3.68125
 10
-4.14375
 20
-3.70625
 10
-4.16796875
 20
-3.725
 10
-4.1984375
 20
-3.7390625
 10
-4.23359375
 20
-3.746875
 10
-4.275
 20
-3.75
  0
LWPOLYLINE
  5
95
330
1F
100
AcDbEntity
  8
0
  6
Continuous
 62
     7
100
AcDbPolyline
 90
       88
 70
   128
 43
0.0
 10
-5.1499977708
 20
26.8
 10
-5.675
 20
26.8
 10
-5.675
 20
26.8
 10
-5.715625
 20
26.803125
 10
-5.7515625
 20
26.8109375
 10
-5.78125
 20
26.825
 10
-5.80625
 20
26.84375
 10
-5.825
 20
26.86875
 10
-5.8390625
 20
26.8984375
 10
-5.846875
 20
26.934375
 10
-5.85
 20
26.975
 10
-5.85
 20
26.975
 10
-5.846875
 20
27.01640625
 10
-5.8390625
 20
27.0515625
 10
-5.825
 20
27.08203125
 10
-5.80625
 20
27.10625
 10
-5.78125
 20
27.12578125
 10
-5.7515625
 20
27.1390625
 10
-5.715625
 20
27.14765625
 10
-5.675
 20
27.15
 10
-5.675
 20
27.15
 10
-5.15
 20
27.15
 10
-5.15
 20
27.15
 10
-5.15
 20
27.675
 10
-5.15
 20
27.675
 10
-5.146875
 20
27.71640625
 10
-5.1390625
 20
27.7515625
 10
-5.125
 20
27.78203125
 10
-5.10625
 20
27.80625
 10
-5.08125
 20
27.82578125
 10
-5.0515625
 20
27.8390625
 10
-5.015625
 20
27.84765625
 10
-4.975
 20
27.85
 10
-4.975
 20
27.85
 10
-4.93359375
 20
27.84765625
 10
-4.8984375
 20
27.8390625
 10
-4.86796875
 20
27.82578125
 10
-4.84375
 20
27.80625
 10
-4.82421875
 20
27.78203125
 10
-4.8109375
 20
27.7515625
 10
-4.80234375
 20
27.71640625
 10
-4.8
 20
27.675
 10
-4.8
 20
27.675
 10
-4.8
 20
27.15
 10
-4.8
 20
27.15
 10
-4.275
 20
27.15
 10
-4.275
 20
27.15
 10
-4.23359375
 20
27.14765625
 10
-4.1984375
 20
27.1390625
 10
-4.16796875
 20
27.12578125
 10
-4.14375
 20
27.10625
 10
-4.12421875
 20
27.08203125
 10
-4.1109375
 20
27.0515625
 10
-4.10234375
 20
27.01640625
 10
-4.1
 20
26.975
 10
-4.1
 20
26.975
 10
-4.10234375
 20
26.934375
 10
-4.1109375
 20
26.8984375
 10
-4.12421875
 20
26.86875
 10
-4.14375
 20
26.84375
 10
-4.16796875
 20
26.825
 10
-4.1984375
 20
26.8109375
 10
-4.23359375
 20
26.803125
 10
-4.275
 20
26.8
 10
-4.275
 20
26.8
 10
-4.8
 20
26.8
 10
-4.8
 20
26.8
 10
-4.8
 20
26.275
 10
-4.8
 20
26.275
 10
-4.80234375
 20
26.234375
 10
-4.8109375
 20
26.1984375
 10
-4.82421875
 20
26.16875
 10
-4.84375
 20
26.14375
 10
-4.86796875
 20
26.125
 10
-4.8984375
 20
26.1109375
 10
-4.93359375
 20
26.103125
 10
-4.975
 20
26.1
 10
-4.975
 20
26.1
 10
-5.015625
 20
26.103125
 10
-5.0515625
 20
26.1109375
 10
-5.08125
 20
26.125
 10
-5.10625
 20
26.14375
 10
-5.125
 20
26.16875
 10
-5.1390625
 20
26.1984375
 10
-5.146875
 20
26.234375
 10
-5.15
 20
26.275
 10
-5.15
 20
26.275
 10
-5.15
 20
26.8
  0
LWPOLYLINE
  5
96
330
1F
100
AcDbEntity
  8
0
  6
Continuous
 62
     7
100
AcDbPolyline
 90
       40
 70
   128
 43
0.0
 10
-4.2749978602
 20
17.3
 10
-5.675
 20
17.3
 10
-5.675
 20
17.3
 10
-5.715625
 20
17.303125
 10
-5.7515625
 20
17.3109375
 10
-5.78125
 20
17.325
 10
-5.80625
 20
17.34375
 10
-5.825
 20
17.36875
 10
-5.8390625
 20
17.3984375
 10
-5.846875
 20
17.434375
 10
-5.85
 20
17.475
 10
-5.85
 20
17.475
 10
-5.846875
 20
17.51640625
 10
-5.8390625
 20
17.5515625
 10
-5.825
 20
17.58203125
 10
-5.80625
 20
17.60625
 10
-5.78125
 20
17.62578125
 10
-5.7515625
 20
17.6390625
 10
-5.715625
 20
17.64765625
 10
-5.675
 20
17.65
 10
-5.675
 20
17.65
 10
-4.275
 20
17.65
 10
-4.275
 20
17.65
 10
-4.23359375
 20
17.64765625
 10
-4.1984375
 20
17.6390625
 10
-4.16796875
 20
17.62578125
 10
-4.14375
 20
17.60625
 10
-4.12421875
 20
17.58203125
 10
-4.1109375
 20
17.5515625
 10
-4.10234375
 20
17.51640625
 10
-4.1
 20
17.475
 10
-4.1
 20
17.475
 10
-4.10234375
 20
17.434375
 10
-4.1109375
 20
17.3984375
 10
-4.12421875
 20
17.36875
 10
-4.14375
 20
17.34375
 10
-4.16796875
 20
17.325
 10
-4.1984375
 20
17.3109375
 10
-4.23359375
 20
17.303125
 10
-4.275
 20
17.3
  0
LWPOLYLINE
  5
97
330
1F
100
AcDbEntity
  8
0
  6
Continuous
 62
     7
100
AcDbPolyline
 90
       40
 70
   128
 43
0.0
 10
-4.2749978602
 20
16.25
 10
-5.675
 20
16.25
 10
-5.675
 20
16.25
 10
-5.715625
 20
16.253125
 10
-5.7515625
 20
16.2609375
 10
-5.78125
 20
16.275
 10
-5.80625
 20
16.29375
 10
-5.825
 20
16.31875
 10
-5.8390625
 20
16.3484375
 10
-5.846875
 20
16.384375
 10
-5.85
 20
16.425
 10
-5.85
 20
16.425
 10
-5.846875
 20
16.46640625
 10
-5.8390625
 20
16.5015625
 10
-5.825
 20
16.53203125
 10
-5.80625
 20
16.55625
 10
-5.78125
 20
16.57578125
 10
-5.7515625
 20
16.5890625
 10
-5.715625
 20
16.59765625
 10
-5.675
 20
16.6
 10
-5.675
 20
16.6
 10
-4.275
 20
16.6
 10
-4.275
 20
16.6
 10
-4.23359375
 20
16.59765625
 10
-4.1984375
 20
16.5890625
 10
-4.16796875
 20
16.57578125
 10
-4.14375
 20
16.55625
 10
-4.12421875
 20
16.53203125
 10
-4.1109375
 20
16.5015625
 10
-4.10234375
 20
16.46640625
 10
-4.1
 20
16.425
 10
-4.1
 20
16.425
 10
-4.10234375
 20
16.384375
 10
-4.1109375
 20
16.3484375
 10
-4.12421875
 20
16.31875
 10
-4.14375
 20
16.29375
 10
-4.16796875
 20
16.275
 10
-4.1984375
 20
16.2609375
 10
-4.23359375
 20
16.253125
 10
-4.275
 20
16.25
  0
LWPOLYLINE
  5
98
330
1F
100
AcDbEntity
  8
0
  6
Continuous
 62
     7
100
AcDbPolyline
 90
       40
 70
   128
 43
0.0
 10
-4.2749978602
 20
-22.7
 10
-5.675
 20
-22.7
 10
-5.675
 20
-22.7
 10
-5.715625
 20
-22.696875
 10
-5.7515625
 20
-22.6890625
 10
-5.78125
 20
-22.675
 10
-5.80625
 20
-22.65625
 10
-5.825
 20
-22.63125
 10
-5.8390625
 20
-22.6015625
 10
-5.846875
 20
-22.565625
 10
-5.85
 20
-22.525
 10
-5.85
 20
-22.525
 10
-5.846875
 20
-22.48359375
 10
-5.8390625
 20
-22.4484375
 10
-5.825
 20
-22.41796875
 10
-5.80625
 20
-22.39375
 10
-5.78125
 20
-22.37421875
 10
-5.7515625
 20
-22.3609375
 10
-5.715625
 20
-22.35234375
 10
-5.675
 20
-22.35
 10
-5.675
 20
-22.35
 10
-4.275
 20
-22.35
 10
-4.275
 20
-22.35
 10
-4.23359375
 20
-22.35234375
 10
-4.1984375
 20
-22.3609375
 10
-4.16796875
 20
-22.37421875
 10
-4.14375
 20
-22.39375
 10
-4.12421875
 20
-22.41796875
 10
-4.1109375
 20
-22.4484375
 10
-4.10234375
 20
-22.48359375
 10
-4.1
 20
-22.525
 10
-4.1
 20
-22.525
 10
-4.10234375
 20
-22.565625
 10
-4.1109375
 20
-22.6015625
 10
-4.12421875
 20
-22.63125
 10
-4.14375
 20
-22.65625
 10
-4.16796875
 20
-22.675
 10
-4.1984375
 20
-22.6890625
 10
-4.23359375
 20
-22.696875
 10
-4.275
 20
-22.7
  0
LWPOLYLINE
  5
99
330
1F
100
AcDbEntity
  8
0
  6
Continuous
 62
     7
100
AcDbPolyline
 90
       40
 70
   128
 43
0.0
 10
-4.2749978602
 20
-23.75
 10
-5.675
 20
-23.75
 10
-5.675
 20
-23.75
 10
-5.715625
 20
-23.746875
 10
-5.7515625
 20
-23.7390625
 10
-5.78125
 20
-23.725
 10
-5.80625
 20
-23.70625
 10
-5.825
 20
-23.68125
 10
-5.8390625
 20
-23.6515625
 10
-5.846875
 20
-23.615625
 10
-5.85
 20
-23.575
 10
-5.85
 20
-23.575
 10
-5.846875
 20
-23.53359375
 10
-5.8390625
 20
-23.4984375
 10
-5.825
 20
-23.46796875
 10
-5.80625
 20
-23.44375
 10
-5.78125
 20
-23.42421875
 10
-5.7515625
 20
-23.4109375
 10
-5.715625
 20
-23.40234375
 10
-5.675
 20
-23.4
 10
-5.675
 20
-23.4
 10
-4.275
 20
-23.4
 10
-4.275
 20
-23.4
 10
-4.23359375
 20
-23.40234375
 10
-4.1984375
 20
-23.4109375
 10
-4.16796875
 20
-23.42421875
 10
-4.14375
 20
-23.44375
 10
-4.12421875
 20
-23.46796875
 10
-4.1109375
 20
-23.4984375
 10
-4.10234375
 20
-23.53359375
 10
-4.1
 20
-23.575
 10
-4.1
 20
-23.575
 10
-4.10234375
 20
-23.615625
 10
-4.1109375
 20
-23.6515625
 10
-4.12421875
 20
-23.68125
 10
-4.14375
 20
-23.70625
 10
-4.16796875
 20
-23.725
 10
-4.1984375
 20
-23.7390625
 10
-4.23359375
 20
-23.746875
 10
-4.275
 20
-23.75
  0
LWPOLYLINE
  5
9A
330
1F
100
AcDbEntity
  8
0
  6
Continuous
 62
     7
100
AcDbPolyline
 90
       40
 70
   128
 43
0.0
 10
-4.2749978602
 20
-42.7
 10
-5.675
 20
-42.7
 10
-5.675
 20
-42.7
 10
-5.715625
 20
-42.696875
 10
-5.7515625
 20
-42.6890625
 10
-5.78125
 20
-42.675
 10
-5.80625
 20
-42.65625
 10
-5.825
 20
-42.63125
 10
-5.8390625
 20
-42.6015625
 10
-5.846875
 20
-42.565625
 10
-5.85
 20
-42.525
 10
-5.85
 20
-42.525
 10
-5.846875
 20
-42.48359375
 10
-5.8390625
 20
-42.4484375
 10
-5.825
 20
-42.41796875
 10
-5.80625
 20
-42.39375
 10
-5.78125
 20
-42.37421875
 10
-5.7515625
 20
-42.3609375
 10
-5.715625
 20
-42.35234375
 10
-5.675
 20
-42.35
 10
-5.675
 20
-42.35
 10
-4.275
 20
-42.35
 10
-4.275
 20
-42.35
 10
-4.23359375
 20
-42.35234375
 10
-4.1984375
 20
-42.3609375
 10
-4.16796875
 20
-42.37421875
 10
-4.14375
 20
-42.39375
 10
-4.12421875
 20
-42.41796875
 10
-4.1109375
 20
-42.4484375
 10
-4.10234375
 20
-42.48359375
 10
-4.1
 20
-42.525
 10
-4.1
 20
-42.525
 10
-4.10234375
 20
-42.565625
 10
-4.1109375
 20
-42.6015625
 10
-4.12421875
 20
-42.63125
 10
-4.14375
 20
-42.65625
 10
-4.16796875
 20
-42.675
 10
-4.1984375
 20
-42.6890625
 10
-4.23359375
 20
-42.696875
 10
-4.275
 20
-42.7
  0
LWPOLYLINE
  5
9B
330
1F
100
AcDbEntity
  8
0
  6
Continuous
 62
     7
100
AcDbPolyline
 90
       40
 70
   128
 43
0.0
 10
-4.2749978602
 20
-43.75
 10
-5.675
 20
-43.75
 10
-5.675
 20
-43.75
 10
-5.715625
 20
-43.746875
 10
-5.7515625
 20
-43.7390625
 10
-5.78125
 20
-43.725
 10
-5.80625
 20
-43.70625
 10
-5.825
 20
-43.68125
 10
-5.8390625
 20
-43.6515625
 10
-5.846875
 20
-43.615625
 10
-5.85
 20
-43.575
 10
-5.85
 20
-43.575
 10
-5.846875
 20
-43.53359375
 10
-5.8390625
 20
-43.4984375
 10
-5.825
 20
-43.46796875
 10
-5.80625
 20
-43.44375
 10
-5.78125
 20
-43.42421875
 10
-5.7515625
 20
-43.4109375
 10
-5.715625
 20
-43.40234375
 10
-5.675
 20
-43.4
 10
-5.675
 20
-43.4
 10
-4.275
 20
-43.4
 10
-4.275
 20
-43.4
 10
-4.23359375
 20
-43.40234375
 10
-4.1984375
 20
-43.4109375
 10
-4.16796875
 20
-43.42421875
 10
-4.14375
 20
-43.44375
 10
-4.12421875
 20
-43.46796875
 10
-4.1109375
 20
-43.4984375
 10
-4.10234375
 20
-43.53359375
 10
-4.1
 20
-43.575
 10
-4.1
 20
-43.575
 10
-4.10234375
 20
-43.615625
 10
-4.1109375
 20
-43.6515625
 10
-4.12421875
 20
-43.68125
 10
-4.14375
 20
-43.70625
 10
-4.16796875
 20
-43.725
 10
-4.1984375
 20
-43.7390625
 10
-4.23359375
 20
-43.746875
 10
-4.275
 20
-43.75
  0
POINT
  5
9C
330
1F
100
AcDbEntity
  8
0
  6
Continuous
 62
     7
100
AcDbPoint
 10
-4.1804801338
 20
53.7230747971
 30
0.0
  0
POINT
  5
9D
330
1F
100
AcDbEntity
  8
0
  6
Continuous
 62
     7
100
AcDbPoint
 10
-7.1804801338
 20
50.7230747971
 30
0.0
  0
POINT
  5
9E
330
1F
100
AcDbEntity
  8
0
  6
Continuous
 62
     7
100
AcDbPoint
 10
-7.1804801338
 20
53.7230747971
 30
0.0
  0
POINT
  5
9F
330
1F
100
AcDbEntity
  8
0
  6
Continuous
 62
     7
100
AcDbPoint
 10
-10.1804801338
 20
53.7230747971
 30
0.0
  0
POINT
  5
A0
330
1F
100
AcDbEntity
  8
0
  6
Continuous
 62
     7
100
AcDbPoint
 10
-10.1804801338
 20
50.7230747971
 30
0.0
  0
CIRCLE
  5
AD
330
1F
100
AcDbEntity
  8
0
  6
Continuous
 62
     7
370
    25
100
AcDbCircle
 10
0.7
 20
-44.25
 30
0.0
 40
3.150000000000006
  0
CIRCLE
  5
AE
330
1F
100
AcDbEntity
  8
0
  6
Continuous
 62
     7
370
    25
100
AcDbCircle
 10
0.7
 20
-34.25
 30
0.0
 40
3.150000000000006
  0
CIRCLE
  5
AF
330
1F
100
AcDbEntity
  8
0
  6
Continuous
 62
     7
370
    25
100
AcDbCircle
 10
0.7
 20
-24.25
 30
0.0
 40
3.149999999999999
  0
CIRCLE
  5
B0
330
1F
100
AcDbEntity
  8
0
  6
Continuous
 62
     7
370
    25
100
AcDbCircle
 10
0.7
 20
-14.25
 30
0.0
 40
3.149999999999999
  0
CIRCLE
  5
B1
330
1F
100
AcDbEntity
  8
0
  6
Continuous
 62
     7
370
    25
100
AcDbCircle
 10
0.7
 20
-4.25
 30
0.0
 40
3.150000000000001
  0
CIRCLE
  5
B2
330
1F
100
AcDbEntity
  8
0
  6
Continuous
 62
     7
370
    25
100
AcDbCircle
 10
0.7
 20
5.75
 30
0.0
 40
3.150000000000003
  0
CIRCLE
  5
B3
330
1F
100
AcDbEntity
  8
0
  6
Continuous
 62
     7
370
    25
100
AcDbCircle
 10
0.7
 20
15.75
 30
0.0
 40
3.15
  0
CIRCLE
  5
B4
330
1F
100
AcDbEntity
  8
0
  6
Continuous
 62
     7
370
    25
100
AcDbCircle
 10
0.7
 20
25.75
 30
0.0
 40
3.150000000000002
  0
LINE
  5
B5
330
1F
100
AcDbEntity
  8
0
  6
Continuous
 62
     7
370
    25
100
AcDbLine
 10
-5.2
 20
-62.85
 30
0.0
 11
-2.2
 21
-62.85
 31
0.0
  0
LINE
  5
B6
330
1F
100
AcDbEntity
  8
0
  6
Continuous
 62
     7
370
    25
100
AcDbLine
 10
-2.2
 20
-59.65
 30
0.0
 11
-5.2
 21
-59.65
 31
0.0
  0
LINE
  5
B7
330
1F
100
AcDbEntity
  8
0
  6
Continuous
 62
     7
370
    25
100
AcDbLine
 10
-12.7
 20
-64.25
 30
0.0
 11
12.7
 21
-64.25
 31
0.0
  0
LINE
  5
B8
330
1F
100
AcDbEntity
  8
0
  6
Continuous
 62
     7
370
    25
100
AcDbLine
 10
-12.7
 20
64.25
 30
0.0
 11
-12.7
 21
-64.25
 31
0.0
  0
LINE
  5
B9
330
1F
100
AcDbEntity
  8
0
  6
Continuous
 62
     7
370
    25
100
AcDbLine
 10
12.7
 20
64.25
 30
0.0
 11
-12.7
 21
64.25
 31
0.0
  0
LINE
  5
BA
330
1F
100
AcDbEntity
  8
0
  6
Continuous
 62
     7
370
    25
100
AcDbLine
 10
12.7
 20
-64.25
 30
0.0
 11
12.7
 21
64.25
 31
0.0
  0
LINE
  5
BB
330
1F
100
AcDbEntity
  8
0
  6
Continuous
 62
     7
370
    25
100
AcDbLine
 10
-5.2
 20
59.65
 30
0.0
 11
-2.2
 21
59.65
 31
0.0
  0
LINE
  5
BC
330
1F
100
AcDbEntity
  8
0
  6
Continuous
 62
     7
370
    25
100
AcDbLine
 10
-2.2
 20
62.85
 30
0.0
 11
-5.2
 21
62.85
 31
0.0
  0
ARC
  5
BD
330
1F
100
AcDbEntity
  8
0
  6
Continuous
 62
     7
370
    25
100
AcDbCircle
 10
-2.2
 20
-61.25
 30
0.0
 40
1.599999999999994
100
AcDbArc
 50
270.0
 51
90.0
  0
ARC
  5
BE
330
1F
100
AcDbEntity
  8
0
  6
Continuous
 62
     7
370
    25
100
AcDbCircle
 10
-5.2
 20
-61.25
 30
0.0
 40
1.599999999999994
100
AcDbArc
 50
90.0
 51
270.0
  0
ARC
  5
BF
330
1F
100
AcDbEntity
  8
0
  6
Continuous
 62
     7
370
    25
100
AcDbCircle
 10
-2.2
 20
61.25
 30
0.0
 40
1.600000000000009
100
AcDbArc
 50
270.0
 51
90.0
  0
ARC
  5
C0
330
1F
100
AcDbEntity
  8
0
  6
Continuous
 62
     7
370
    25
100
AcDbCircle
 10
-5.2
 20
61.25
 30
0.0
 40
1.600000000000009
100
AcDbArc
 50
90.0
 51
270.0
  0
MTEXT
  5
C2
330
1F
100
AcDbEntity
  8
0
  6
Continuous
 62
     7
100
AcDbMText
 10
-12.7
 20
-65.2695663917
 30
0.0
 40
4.83362
 41
0.0
 71
     1
 72
     1
  1
SOLIDWORKS Lehrprodukt - Nur fr Lehrzwecke.
  7
SLDTEXTSTYLE0
 73
     1
 44
1.0
  0
ENDSEC
  0
SECTION
  2
OBJECTS
  0
DICTIONARY
  5
C
330
0
100
AcDbDictionary
281
     1
  3
ACAD_GROUP
350
D
  3
ACAD_LAYOUT
350
1A
  3
ACAD_MLINESTYLE
350
17
  3
ACAD_PLOTSETTINGS
350
19
  3
ACAD_PLOTSTYLENAME
350
E
  3
ACAD_SCALELIST
350
47
  0
DICTIONARY
  5
D
102
{ACAD_REACTORS
330
C
102
}
330
C
100
AcDbDictionary
281
     1
  0
DICTIONARY
  5
1A
102
{ACAD_REACTORS
330
C
102
}
330
C
100
AcDbDictionary
281
     1
  3
Layout1
350
1E
  3
Layout2
350
26
  3
Model
350
22
  0
DICTIONARY
  5
17
102
{ACAD_REACTORS
330
C
102
}
330
C
100
AcDbDictionary
281
     1
  3
Standard
350
18
  0
DICTIONARY
  5
19
102
{ACAD_REACTORS
330
C
102
}
330
C
100
AcDbDictionary
281
     1
  0
ACDBDICTIONARYWDFLT
  5
E
102
{ACAD_REACTORS
330
C
102
}
330
C
100
AcDbDictionary
281
     1
  3
Normal
350
F
100
AcDbDictionaryWithDefault
340
F
  0
DICTIONARY
  5
47
102
{ACAD_REACTORS
330
C
102
}
330
C
100
AcDbDictionary
281
     1
  3
A0
350
48
  3
A1
350
49
  3
A2
350
4A
  3
A3
350
4B
  3
A4
350
4C
  3
A5
350
4D
  3
A6
350
4E
  3
A7
350
4F
  3
A8
350
50
  3
A9
350
51
  3
B0
350
52
  3
B1
350
53
  3
B2
350
54
  3
B3
350
55
  3
B4
350
56
  3
B5
350
57
  3
B6
350
58
  3
B7
350
59
  3
B8
350
5A
  3
B9
350
5B
  3
C0
350
5C
  3
C1
350
5D
  3
C2
350
5E
  3
C3
350
5F
  3
C4
350
60
  3
C5
350
61
  3
C6
350
62
  3
C7
350
63
  3
C8
350
64
  3
C9
350
65
  3
D0
350
66
  3
D1
350
67
  3
D2
350
68
  0
LAYOUT
  5
1E
102
{ACAD_REACTORS
330
1A
102
}
330
1A
100
AcDbPlotSettings
  1

  2
none_device
  4

  6

 40
0.0
 41
0.0
 42
0.0
 43
0.0
 44
0.0
 45
0.0
 46
0.0
 47
0.0
 48
0.0
 49
0.0
140
0.0
141
0.0
142
1.0
143
1.0
 70
   688
 72
     1
 73
     0
 74
     5
  7

 75
    16
147
1.0
148
0.0
149
0.0
100
AcDbLayout
  1
Layout1
 70
     1
 71
     1
 10
0.0
 20
0.0
 11
420.0
 21
297.0
 12
0.0
 22
0.0
 32
0.0
 14
1.0000000000E+20
 24
1.0000000000E+20
 34
1.0000000000E+20
 15
-1.0000000000E+20
 25
-1.0000000000E+20
 35
-1.0000000000E+20
146
0.0
 13
0.0
 23
0.0
 33
0.0
 16
1.0
 26
0.0
 36
0.0
 17
0.0
 27
1.0
 37
0.0
 76
     0
330
1B
  0
LAYOUT
  5
26
102
{ACAD_REACTORS
330
1A
102
}
330
1A
100
AcDbPlotSettings
  1

  2
none_device
  4

  6

 40
0.0
 41
0.0
 42
0.0
 43
0.0
 44
0.0
 45
0.0
 46
0.0
 47
0.0
 48
0.0
 49
0.0
140
0.0
141
0.0
142
1.0
143
1.0
 70
   688
 72
     1
 73
     0
 74
     5
  7

 75
    16
147
1.0
148
0.0
149
0.0
100
AcDbLayout
  1
Layout2
 70
     1
 71
     2
 10
0.0
 20
0.0
 11
0.0
 21
0.0
 12
0.0
 22
0.0
 32
0.0
 14
0.0
 24
0.0
 34
0.0
 15
0.0
 25
0.0
 35
0.0
146
0.0
 13
0.0
 23
0.0
 33
0.0
 16
1.0
 26
0.0
 36
0.0
 17
0.0
 27
1.0
 37
0.0
 76
     0
330
23
  0
LAYOUT
  5
22
102
{ACAD_REACTORS
330
1A
102
}
330
1A
100
AcDbPlotSettings
  1

  2
none_device
  4
ANSI_A_(11.00_x_8.50_Inches)
  6

 40
6.35
 41
19.05
 42
6.35000508
 43
19.05000254
 44
279.4
 45
215.9
 46
133.34999746
 47
88.89999873
 48
0.0
 49
0.0
140
0.0
141
0.0
142
0.0654863813
143
1.0
 70
  1696
 72
     0
 73
     0
 74
     0
  7

 75
     0
147
0.0179189148
148
-1300.4909072572
149
0.0
100
AcDbLayout
  1
Model
 70
     1
 71
     0
 10
0.0
 20
0.0
 11
420.0
 21
297.0
 12
0.0
 22
0.0
 32
0.0
 14
-12.7
 24
-64.25
 34
0.0
 15
12.7
 25
64.25
 35
0.0
146
0.0
 13
0.0
 23
0.0
 33
0.0
 16
1.0
 26
0.0
 36
0.0
 17
0.0
 27
1.0
 37
0.0
 76
     0
330
1F
331
29
  0
MLINESTYLE
  5
18
102
{ACAD_REACTORS
330
17
102
}
330
17
100
AcDbMlineStyle
  2
Standard
 70
     0
  3

 62
   256
 51
90.0
 52
90.0
 71
     2
 49
0.5
 62
   256
  6
BYLAYER
 49
-0.5
 62
   256
  6
BYLAYER
  0
ACDBPLACEHOLDER
  5
F
102
{ACAD_REACTORS
330
E
102
}
330
E
  0
SCALE
  5
48
102
{ACAD_REACTORS
330
47
102
}
330
47
100
AcDbScale
 70
     0
300
1:1
140
1.0
141
1.0
290
     1
  0
SCALE
  5
49
102
{ACAD_REACTORS
330
47
102
}
330
47
100
AcDbScale
 70
     0
300
1:2
140
1.0
141
2.0
290
     0
  0
SCALE
  5
4A
102
{ACAD_REACTORS
330
47
102
}
330
47
100
AcDbScale
 70
     0
300
1:4
140
1.0
141
4.0
290
     0
  0
SCALE
  5
4B
102
{ACAD_REACTORS
330
47
102
}
330
47
100
AcDbScale
 70
     0
300
1:5
140
1.0
141
5.0
290
     0
  0
SCALE
  5
4C
102
{ACAD_REACTORS
330
47
102
}
330
47
100
AcDbScale
 70
     0
300
1:8
140
1.0
141
8.0
290
     0
  0
SCALE
  5
4D
102
{ACAD_REACTORS
330
47
102
}
330
47
100
AcDbScale
 70
     0
300
1:10
140
1.0
141
10.0
290
     0
  0
SCALE
  5
4E
102
{ACAD_REACTORS
330
47
102
}
330
47
100
AcDbScale
 70
     0
300
1:16
140
1.0
141
16.0
290
     0
  0
SCALE
  5
4F
102
{ACAD_REACTORS
330
47
102
}
330
47
100
AcDbScale
 70
     0
300
1:20
140
1.0
141
20.0
290
     0
  0
SCALE
  5
50
102
{ACAD_REACTORS
330
47
102
}
330
47
100
AcDbScale
 70
     0
300
1:30
140
1.0
141
30.0
290
     0
  0
SCALE
  5
51
102
{ACAD_REACTORS
330
47
102
}
330
47
100
AcDbScale
 70
     0
300
1:40
140
1.0
141
40.0
290
     0
  0
SCALE
  5
52
102
{ACAD_REACTORS
330
47
102
}
330
47
100
AcDbScale
 70
     0
300
1:50
140
1.0
141
50.0
290
     0
  0
SCALE
  5
53
102
{ACAD_REACTORS
330
47
102
}
330
47
100
AcDbScale
 70
     0
300
1:100
140
1.0
141
100.0
290
     0
  0
SCALE
  5
54
102
{ACAD_REACTORS
330
47
102
}
330
47
100
AcDbScale
 70
     0
300
2:1
140
2.0
141
1.0
290
     0
  0
SCALE
  5
55
102
{ACAD_REACTORS
330
47
102
}
330
47
100
AcDbScale
 70
     0
300
4:1
140
4.0
141
1.0
290
     0
  0
SCALE
  5
56
102
{ACAD_REACTORS
330
47
102
}
330
47
100
AcDbScale
 70
     0
300
8:1
140
8.0
141
1.0
290
     0
  0
SCALE
  5
57
102
{ACAD_REACTORS
330
47
102
}
330
47
100
AcDbScale
 70
     0
300
10:1
140
10.0
141
1.0
290
     0
  0
SCALE
  5
58
102
{ACAD_REACTORS
330
47
102
}
330
47
100
AcDbScale
 70
     0
300
100:1
140
100.0
141
1.0
290
     0
  0
SCALE
  5
59
102
{ACAD_REACTORS
330
47
102
}
330
47
100
AcDbScale
 70
     0
300
1/128" = 1'-0"
140
0.0078125
141
12.0
290
     0
  0
SCALE
  5
5A
102
{ACAD_REACTORS
330
47
102
}
330
47
100
AcDbScale
 70
     0
300
1/64" = 1'-0"
140
0.015625
141
12.0
290
     0
  0
SCALE
  5
5B
102
{ACAD_REACTORS
330
47
102
}
330
47
100
AcDbScale
 70
     0
300
1/32" = 1'-0"
140
0.03125
141
12.0
290
     0
  0
SCALE
  5
5C
102
{ACAD_REACTORS
330
47
102
}
330
47
100
AcDbScale
 70
     0
300
1/16" = 1'-0"
140
0.0625
141
12.0
290
     0
  0
SCALE
  5
5D
102
{ACAD_REACTORS
330
47
102
}
330
47
100
AcDbScale
 70
     0
300
3/32" = 1'-0"
140
0.09375
141
12.0
290
     0
  0
SCALE
  5
5E
102
{ACAD_REACTORS
330
47
102
}
330
47
100
AcDbScale
 70
     0
300
1/8" = 1'-0"
140
0.125
141
12.0
290
     0
  0
SCALE
  5
5F
102
{ACAD_REACTORS
330
47
102
}
330
47
100
AcDbScale
 70
     0
300
3/16" = 1'-0"
140
0.1875
141
12.0
290
     0
  0
SCALE
  5
60
102
{ACAD_REACTORS
330
47
102
}
330
47
100
AcDbScale
 70
     0
300
1/4" = 1'-0"
140
0.25
141
12.0
290
     0
  0
SCALE
  5
61
102
{ACAD_REACTORS
330
47
102
}
330
47
100
AcDbScale
 70
     0
300
3/8" = 1'-0"
140
0.375
141
12.0
290
     0
  0
SCALE
  5
62
102
{ACAD_REACTORS
330
47
102
}
330
47
100
AcDbScale
 70
     0
300
1/2" = 1'-0"
140
0.5
141
12.0
290
     0
  0
SCALE
  5
63
102
{ACAD_REACTORS
330
47
102
}
330
47
100
AcDbScale
 70
     0
300
3/4" = 1'-0"
140
0.75
141
12.0
290
     0
  0
SCALE
  5
64
102
{ACAD_REACTORS
330
47
102
}
330
47
100
AcDbScale
 70
     0
300
1" = 1'-0"
140
1.0
141
12.0
290
     0
  0
SCALE
  5
65
102
{ACAD_REACTORS
330
47
102
}
330
47
100
AcDbScale
 70
     0
300
1-1/2" = 1'-0"
140
1.5
141
12.0
290
     0
  0
SCALE
  5
66
102
{ACAD_REACTORS
330
47
102
}
330
47
100
AcDbScale
 70
     0
300
3" = 1'-0"
140
3.0
141
12.0
290
     0
  0
SCALE
  5
67
102
{ACAD_REACTORS
330
47
102
}
330
47
100
AcDbScale
 70
     0
300
6" = 1'-0"
140
6.0
141
12.0
290
     0
  0
SCALE
  5
68
102
{ACAD_REACTORS
330
47
102
}
330
47
100
AcDbScale
 70
     0
300
1'-0" = 1'-0"
140
12.0
141
12.0
290
     0
  0
ENDSEC
  0
EOF
